<?xml version="1.0" encoding="utf-8"?>
<!-- Generator: Adobe Illustrator 23.0.5, SVG Export Plug-In . SVG Version: 6.00 Build 0)  -->
<svg version="1.1" id="Layer_1" xmlns="http://www.w3.org/2000/svg" xmlns:xlink="http://www.w3.org/1999/xlink" x="0px" y="0px"
	 viewBox="0 0 16 16" style="enable-background:new 0 0 16 16;" xml:space="preserve">
<style type="text/css">
	.st0{fill:#050404;}
	.st1{fill:#F2C64B;}
	.st2{fill:#F2C54B;}
	.st3{fill:#F8647C;}
	.st4{fill:#F1C54B;}
	.st5{fill:#F7637C;}
	.st6{fill:#28569B;}
	.st7{fill:#010304;}
	.st8{fill:#4F8BD3;}
</style>
<g>
	<path class="st0" d="M0.87,9.15C0.55,9.1,0.36,8.86,0.41,8.55c0.2-1.19,0.41-2.37,0.63-3.56c0.05-0.27,0.3-0.47,0.57-0.48
		c0.13,0,0.25,0.01,0.38,0c0.16,0,0.35,0.08,0.47-0.02C2.58,4.4,2.61,4.2,2.68,4.04C2.87,3.6,2.89,3.58,3.33,3.65
		c0.1,0.02,0.14,0,0.18-0.11c0.28-0.78,1.13-1.27,1.87-1.1c0.05,0.01,0.1,0.04,0.14,0.03c0.23-0.11,0.41-0.01,0.6,0.01
		c0.12,0.02,0.16,0,0.2-0.13C6.67,1.29,7.88,0.6,8.87,0.92c0.81,0.27,1.19,1.12,0.89,2.01C9.72,3.05,9.74,3.07,9.83,3.08
		c0.12,0.01,0.23,0.03,0.34,0.05c0.23,0.04,0.31,0.15,0.25,0.39c-0.09,0.36-0.17,0.73-0.27,1.09c-0.03,0.11,0,0.13,0.1,0.13
		c0.62,0.01,1.24,0.03,1.85,0.05c0.07,0,0.12-0.01,0.16-0.09c0.18-0.31,0.37-0.61,0.56-0.92c0.04-0.06,0.04-0.1,0-0.15
		c-0.12-0.16-0.12-0.35,0-0.55c0.12-0.2,0.29-0.31,0.51-0.33c0.58-0.05,1.16-0.11,1.73-0.17c0.32-0.03,0.54,0.17,0.52,0.46
		c-0.02,0.3-0.25,0.54-0.58,0.58c-0.58,0.06-1.16,0.12-1.73,0.16c-0.11,0.01-0.16,0.04-0.21,0.14C11.9,5.86,10.72,7.78,9.55,9.7
		c-0.19,0.31-0.44,0.53-0.78,0.65C8.62,10.4,8.47,10.4,8.3,10.42c0.1,0.12,0.2,0.22,0.27,0.34c0.23,0.43,0.46,0.87,0.68,1.31
		c0.22,0.45-0.2,1.03-0.74,1.04c-0.1,0-0.2,0-0.31,0c0.37,0.62,0.27,1.23-0.26,1.7c-0.48,0.41-1.14,0.47-1.54,0.12
		c-0.25-0.22-0.36-0.51-0.32-0.88c0.04-0.36,0.24-0.66,0.53-0.92c-1.16,0-2.3,0-3.46,0c0.43,0.52,0.24,1.23-0.23,1.66
		c-0.48,0.44-1.18,0.5-1.59,0.13C1.1,14.72,0.99,14.47,1,14.15c0.01-0.4,0.21-0.74,0.55-1.04c-0.18,0-0.34,0-0.49,0
		c-0.24-0.01-0.4-0.16-0.41-0.38c-0.02-0.34,0.27-0.62,0.65-0.62c2.19,0,4.38,0,6.57,0c0.05,0,0.1,0,0.17,0
		c-0.14-0.26-0.25-0.49-0.38-0.72c-0.14-0.25-0.37-0.41-0.67-0.46c-0.65-0.12-1.3-0.22-1.95-0.33c-0.88-0.15-1.76-0.3-2.64-0.45
		c-0.3-0.05-0.44-0.31-0.33-0.61c0.02-0.06,0.05-0.11,0.09-0.17C1.72,9.3,1.3,9.23,0.87,9.15z M8.45,12.82
		c0.18,0,0.34-0.04,0.46-0.21C9.03,12.45,9,12.3,8.92,12.15c-0.17-0.31-0.34-0.62-0.49-0.95c-0.28-0.61-0.77-0.92-1.46-1.02
		C5.53,9.96,4.1,9.7,2.67,9.46C2.5,9.43,2.39,9.47,2.35,9.61C2.3,9.75,2.36,9.83,2.54,9.86c1.5,0.25,3.01,0.51,4.51,0.76
		c0.44,0.07,0.75,0.31,0.94,0.68c0.14,0.27,0.28,0.54,0.41,0.82c0.03,0.07,0.07,0.13,0.01,0.21c-0.06,0.08-0.13,0.07-0.21,0.07
		c-2.3,0-4.6,0-6.9,0c-0.06,0-0.12,0-0.18,0.02c-0.11,0.03-0.18,0.11-0.18,0.21c-0.01,0.1,0.04,0.17,0.15,0.18
		c0.05,0.01,0.1,0,0.15,0c1.2,0,2.4,0,3.61,0C6.05,12.82,7.25,12.82,8.45,12.82z M9.72,4.73c0.09,0,0.13-0.02,0.16-0.12
		c0.08-0.35,0.16-0.71,0.25-1.06c0.02-0.1,0-0.13-0.09-0.14c-0.06,0-0.12-0.02-0.18-0.03C9.62,3.36,9.62,3.36,9.53,3.6
		C9.52,3.66,9.5,3.71,9.48,3.76c-0.03,0.1-0.09,0.17-0.2,0.15c-0.1-0.02-0.12-0.1-0.08-0.2c0.04-0.1,0.06-0.21,0.1-0.31
		C9.34,3.33,9.32,3.3,9.24,3.29C8.77,3.22,8.3,3.14,7.84,3.07C7.42,3,7.01,2.94,6.6,2.87c-0.11-0.02-0.16,0-0.2,0.13
		C6.32,3.24,6.22,3.48,6.24,3.73C6.25,3.8,6.21,3.89,6.19,3.98c-0.03,0.1-0.02,0.15,0.09,0.15c0.06,0,0.12,0.02,0.18,0.03
		c0.2,0.03,0.28,0.13,0.22,0.34c-0.04,0.14,0,0.16,0.13,0.16c0.49-0.01,0.98,0,1.46,0c0,0.03-0.01,0.05-0.01,0.08
		C8.74,4.73,9.23,4.73,9.72,4.73z M8.61,10.11c0.27-0.06,0.5-0.21,0.64-0.45c0.91-1.49,1.82-2.98,2.73-4.47
		c0.05-0.08,0.05-0.11-0.05-0.11c-0.26,0-0.51-0.01-0.76-0.01c-0.06,0-0.1,0.02-0.13,0.08C10.5,6.02,9.96,6.89,9.44,7.76
		C9.3,7.99,9.3,8.26,9.23,8.51C9.15,8.8,9.09,9.1,9.02,9.39C8.94,9.72,8.68,9.9,8.37,9.86c-0.22-0.03-0.22-0.03-0.33,0.2
		C8.23,10.09,8.4,10.16,8.61,10.11z M8.47,1.14C7.66,1.08,6.89,1.59,6.6,2.38C6.55,2.52,6.57,2.57,6.71,2.59
		C7.58,2.72,8.44,2.86,9.31,3c0.1,0.02,0.15,0,0.17-0.11C9.49,2.8,9.52,2.71,9.54,2.66C9.67,1.87,9.19,1.2,8.47,1.14z M8.71,5.03
		C8.61,5.1,8.55,5.26,8.48,5.38c-0.75,1.23-1.5,2.46-2.26,3.69C6.15,9.18,6.17,9.2,6.28,9.21C6.45,9.23,6.62,9.26,6.79,9.3
		c0.11,0.02,0.18,0,0.25-0.12C7.81,7.9,8.59,6.63,9.36,5.36c0.06-0.11,0.2-0.24,0.17-0.32C9.49,4.96,9.32,5.03,9.2,5.01
		c-0.03,0-0.06,0-0.09,0C8.98,5.02,8.83,4.95,8.71,5.03z M5.24,4.9c-0.07,0-0.11,0.03-0.14,0.09C4.37,6.17,3.65,7.36,2.92,8.54
		C2.86,8.65,2.88,8.67,2.98,8.68C3.16,8.7,3.34,8.73,3.52,8.77c0.1,0.02,0.15-0.01,0.22-0.11c0.7-1.15,1.41-2.31,2.11-3.46
		C5.9,5.11,5.96,5.03,6.03,4.9C5.75,4.9,5.49,4.9,5.24,4.9z M2.48,8.61c0.1,0.02,0.11-0.06,0.14-0.11c0.63-1.03,1.26-2.05,1.89-3.08
		C4.6,5.28,4.68,5.14,4.77,4.99c0.06-0.08,0.03-0.1-0.05-0.1c-0.21,0-0.41-0.01-0.61-0.03C4,4.86,3.94,4.9,3.88,5
		C3.24,6.05,2.6,7.1,1.96,8.14C1.89,8.26,1.82,8.37,1.75,8.49C2,8.53,2.24,8.57,2.48,8.61z M7.53,4.99
		C7.42,5.06,7.36,5.23,7.28,5.35C6.88,6.01,6.48,6.68,6.06,7.34c-0.1,0.16-0.15,0.32-0.19,0.48c-0.1,0.41-0.2,0.81-0.31,1.22
		c0,0.02-0.01,0.03,0,0.05c0.08,0.07,0.28,0.03,0.35-0.08c0.8-1.3,1.59-2.59,2.39-3.89c0.06-0.1,0.08-0.15-0.06-0.14
		c-0.1,0.01-0.21,0-0.31,0C7.8,4.98,7.64,4.91,7.53,4.99z M9.1,6.33C8.5,7.3,7.91,8.27,7.31,9.24C7.24,9.36,7.27,9.38,7.37,9.39
		c0.19,0.02,0.37,0.06,0.55,0.09c0.08,0.01,0.13,0,0.18-0.09C8.43,8.86,8.76,8.33,9.08,7.8c0.08-0.12,0.08-0.25,0.11-0.38
		c0.16-0.66,0.32-1.32,0.48-1.99c-0.01,0-0.02,0-0.02-0.01C9.47,5.73,9.28,6.03,9.1,6.33z M2.78,4.86C2.68,4.93,2.63,5.09,2.55,5.21
		c-0.27,0.4-0.41,0.83-0.59,1.25C1.71,7.04,1.46,7.62,1.22,8.19C1.18,8.28,1.12,8.38,1.25,8.4c0.1,0.02,0.2,0.07,0.3-0.1
		c0.66-1.1,1.34-2.2,2.01-3.3C3.63,4.89,3.64,4.84,3.5,4.85c-0.1,0.01-0.21,0-0.31,0C3.05,4.85,2.9,4.78,2.78,4.86z M4.4,8.1
		C4.26,8.32,4.13,8.54,4,8.75c-0.05,0.08-0.04,0.1,0.04,0.11c0.21,0.03,0.42,0.06,0.63,0.1c0.07,0.01,0.1-0.02,0.13-0.07
		c0.27-0.45,0.55-0.9,0.83-1.35C5.67,7.46,5.68,7.38,5.7,7.3c0.16-0.67,0.32-1.35,0.49-2.02C6.2,5.25,6.2,5.22,6.21,5.18
		c-0.01,0-0.02,0-0.03,0C5.58,6.16,4.99,7.13,4.4,8.1z M3.06,14c0.08-0.48-0.24-0.87-0.71-0.88c-0.48,0-0.95,0.39-1.03,0.88
		c-0.08,0.49,0.23,0.86,0.72,0.86C2.52,14.86,2.97,14.48,3.06,14z M7.08,14.86c0.48,0,0.95-0.4,1.02-0.88
		c0.08-0.48-0.25-0.87-0.73-0.87c-0.48,0-0.93,0.4-1.02,0.88C6.28,14.49,6.59,14.86,7.08,14.86z M1.77,5.96
		C1.98,5.63,2.16,5.29,2.3,4.93c0.03-0.09,0.02-0.11-0.06-0.11c-0.22,0-0.44-0.01-0.66-0.02c-0.11,0-0.21,0.05-0.23,0.17
		C1.2,5.75,1.06,6.52,0.93,7.3c0.01,0,0.02,0,0.02,0.01C1.22,6.85,1.49,6.4,1.77,5.96z M5.56,4.61c0.15,0,0.14-0.1,0.18-0.18
		c0.06-0.11-0.04-0.1-0.1-0.11c-0.63-0.1-1.27-0.2-1.9-0.31c-0.07-0.01-0.11,0-0.13,0.08C3.6,4.17,3.58,4.24,3.55,4.3
		c-0.04,0.09-0.1,0.14-0.19,0.12C3.27,4.41,3.24,4.35,3.26,4.27c0.01-0.03,0.02-0.07,0.03-0.1C3.31,4.1,3.38,4,3.33,3.97
		C3.27,3.93,3.16,3.93,3.07,3.92C3.03,3.91,3.01,3.96,3,3.99C2.93,4.14,2.88,4.3,2.8,4.45c-0.04,0.09,0,0.1,0.07,0.1
		c0.45,0,0.91,0,1.36,0c0,0.02-0.01,0.04-0.01,0.07C4.67,4.61,5.12,4.6,5.56,4.61z M3.78,3.62c-0.02,0.07-0.02,0.1,0.05,0.11
		c0.32,0.05,0.64,0.1,0.96,0.16C4.86,3.9,4.87,3.85,4.89,3.8c0.13-0.31,0.26-0.62,0.4-0.93c0.05-0.1,0.03-0.14-0.07-0.15
		C5.16,2.71,5.09,2.71,5.07,2.71C4.49,2.71,3.97,3.08,3.78,3.62z M15,3.35c0.17-0.02,0.28-0.12,0.29-0.25
		c0.01-0.13-0.07-0.22-0.22-0.21C14.49,2.94,13.9,3,13.31,3.06c-0.13,0.01-0.21,0.09-0.24,0.21c-0.03,0.12,0.02,0.19,0.13,0.23
		c0.03,0.01,0.08,0.01,0.08,0.01C13.87,3.45,14.44,3.41,15,3.35z M10.17,5.04c-0.06,0-0.1,0-0.12,0.08C9.91,5.7,9.77,6.27,9.66,6.86
		c0.37-0.6,0.73-1.19,1.12-1.82C10.55,5.04,10.36,5.04,10.17,5.04z M5.16,3.87C5.14,3.92,5.14,3.94,5.2,3.95
		c0.2,0.03,0.4,0.06,0.6,0.09c0.07,0.01,0.08-0.02,0.1-0.08c0.15-0.4,0.02-0.86-0.31-1.08C5.44,3.22,5.3,3.54,5.16,3.87z M6.66,4.94
		c-0.05,0-0.08,0.01-0.1,0.07C6.44,5.52,6.31,6.02,6.19,6.53c0.01,0,0.03,0.01,0.04,0.01c0.32-0.52,0.64-1.05,0.98-1.6
		C7.01,4.94,6.83,4.94,6.66,4.94z M0.7,8.61c0.01,0.18,0.26,0.33,0.45,0.28C1.22,8.87,1.24,8.8,1.26,8.75
		c0.02-0.06-0.05-0.04-0.08-0.04C0.89,8.65,0.8,8.46,0.92,8.16c0.1-0.23,0.19-0.46,0.29-0.69c-0.01,0-0.02-0.01-0.03-0.01
		C0.93,7.82,0.68,8.18,0.7,8.61z M7.14,9.66C7.01,9.64,7,9.76,6.96,9.82C6.92,9.91,7.02,9.88,7.06,9.89
		c0.15,0.03,0.31,0.05,0.46,0.08c0.22,0.04,0.22,0.04,0.34-0.2C7.62,9.73,7.38,9.69,7.14,9.66z M6.58,9.81
		C6.71,9.82,6.69,9.68,6.79,9.6C6.51,9.56,6.26,9.5,6.01,9.48c-0.11-0.01-0.1,0.13-0.18,0.2C6.09,9.73,6.33,9.77,6.58,9.81z
		 M5.65,9.47c0.04-0.08-0.05-0.05-0.09-0.06C5.36,9.37,5.15,9.34,4.95,9.3C4.82,9.28,4.81,9.39,4.78,9.46
		C4.74,9.54,4.83,9.51,4.87,9.52c0.2,0.04,0.41,0.07,0.63,0.11C5.6,9.63,5.62,9.53,5.65,9.47z M3.85,9.13
		C3.73,9.1,3.72,9.21,3.69,9.27c-0.05,0.1,0.06,0.06,0.09,0.07c0.16,0.03,0.34,0.04,0.49,0.09c0.16,0.05,0.25-0.01,0.3-0.18
		C4.33,9.21,4.09,9.17,3.85,9.13z M2.76,8.96C2.65,8.93,2.63,9.02,2.6,9.08c-0.05,0.1,0.05,0.07,0.09,0.07
		c0.17,0.03,0.34,0.05,0.5,0.09c0.15,0.04,0.23,0,0.28-0.17C3.23,9.03,2.99,9,2.76,8.96z M1.67,8.77c-0.14-0.03-0.13,0.09-0.2,0.17
		c0.25,0.04,0.5,0.09,0.74,0.12c0.12,0.02,0.1-0.11,0.2-0.17C2.13,8.85,1.9,8.82,1.67,8.77z M8.56,9.18
		C8.52,9.24,8.48,9.31,8.45,9.37C8.42,9.43,8.33,9.49,8.38,9.54C8.42,9.58,8.5,9.58,8.57,9.56C8.65,9.53,8.7,9.48,8.71,9.4
		c0.03-0.14,0.08-0.28,0.1-0.42c0.02-0.09,0.09-0.17,0.05-0.3C8.75,8.87,8.66,9.02,8.56,9.18z M5.12,8.88C5.1,8.92,5.04,8.96,5.07,9
		C5.1,9.04,5.17,9.04,5.22,9.03c0.05-0.01,0.08-0.05,0.09-0.1c0.04-0.17,0.08-0.34,0.12-0.51c-0.01,0-0.02,0-0.03,0
		C5.31,8.57,5.21,8.73,5.12,8.88z M6.27,4.63c0.06,0.01,0.09-0.02,0.1-0.08C6.39,4.49,6.4,4.44,6.32,4.44
		c-0.05,0-0.09-0.01-0.14-0.02C6.07,4.4,5.98,4.47,5.99,4.58c0.01,0.1,0.12,0.02,0.17,0.05C6.2,4.63,6.24,4.63,6.27,4.63z
		 M5.97,2.77C6.02,2.84,6.06,2.9,6.11,2.97C6.21,2.79,6.11,2.78,5.97,2.77z"/>
	<path class="st1" d="M8.26,4.73c0.49,0,0.98,0,1.46,0c0.09,0,0.13-0.02,0.16-0.12c0.08-0.35,0.16-0.71,0.25-1.06
		c0.02-0.1,0-0.13-0.09-0.14c-0.06,0-0.12-0.02-0.18-0.03C9.62,3.36,9.62,3.36,9.53,3.6C9.52,3.66,9.5,3.71,9.48,3.76
		c-0.03,0.1-0.09,0.17-0.2,0.15c-0.1-0.02-0.12-0.1-0.08-0.2c0.04-0.1,0.06-0.21,0.1-0.31C9.34,3.33,9.32,3.3,9.24,3.29
		C8.77,3.22,8.3,3.14,7.84,3.07C7.42,3,7.01,2.94,6.6,2.87c-0.11-0.02-0.16,0-0.2,0.13C6.32,3.24,6.22,3.48,6.24,3.73
		C6.25,3.8,6.21,3.89,6.19,3.98c-0.03,0.1-0.02,0.15,0.09,0.15c0.06,0,0.12,0.02,0.18,0.03c0.2,0.03,0.28,0.13,0.22,0.34
		c-0.04,0.14,0,0.16,0.13,0.16c0.49-0.01,0.98,0,1.46,0C8.27,4.68,8.26,4.71,8.26,4.73z"/>
	<path class="st2" d="M9.12,5.01c-0.14,0.01-0.29-0.07-0.4,0.01C8.61,5.1,8.55,5.26,8.48,5.38c-0.75,1.23-1.5,2.46-2.26,3.69
		C6.15,9.18,6.17,9.2,6.28,9.21C6.45,9.23,6.62,9.26,6.79,9.3c0.11,0.02,0.18,0,0.25-0.12C7.81,7.9,8.59,6.63,9.36,5.36
		c0.06-0.11,0.2-0.24,0.17-0.32C9.49,4.96,9.32,5.03,9.2,5.01C9.18,5.01,9.15,5.01,9.12,5.01z"/>
	<path class="st3" d="M6.03,4.9c-0.28,0-0.54,0-0.8,0c-0.07,0-0.11,0.03-0.14,0.09C4.37,6.17,3.65,7.36,2.92,8.54
		C2.86,8.65,2.88,8.67,2.98,8.68C3.16,8.7,3.34,8.73,3.52,8.77c0.1,0.02,0.15-0.01,0.22-0.11c0.7-1.15,1.41-2.31,2.11-3.46
		C5.9,5.11,5.96,5.03,6.03,4.9z"/>
	<path class="st3" d="M1.75,8.49C2,8.53,2.24,8.57,2.48,8.61c0.1,0.02,0.11-0.06,0.14-0.11c0.63-1.03,1.26-2.05,1.89-3.08
		C4.6,5.28,4.68,5.14,4.77,4.99c0.06-0.08,0.03-0.1-0.05-0.1c-0.21,0-0.41-0.01-0.61-0.03C4,4.86,3.94,4.9,3.88,5
		C3.24,6.05,2.6,7.1,1.96,8.14C1.89,8.26,1.82,8.37,1.75,8.49z"/>
	<path class="st2" d="M7.94,4.98c-0.14,0-0.3-0.08-0.42,0C7.42,5.06,7.36,5.23,7.28,5.35C6.88,6.01,6.48,6.68,6.06,7.34
		c-0.1,0.16-0.15,0.32-0.19,0.48c-0.1,0.41-0.2,0.81-0.31,1.22c0,0.02-0.01,0.03,0,0.05c0.08,0.07,0.28,0.03,0.35-0.08
		c0.8-1.3,1.59-2.59,2.39-3.89c0.06-0.1,0.08-0.15-0.06-0.14C8.15,4.99,8.04,4.98,7.94,4.98z"/>
	<path class="st4" d="M9.65,5.43c-0.18,0.3-0.37,0.6-0.55,0.9C8.5,7.3,7.91,8.27,7.31,9.24C7.24,9.36,7.27,9.38,7.37,9.39
		c0.19,0.02,0.37,0.06,0.55,0.09c0.08,0.01,0.13,0,0.18-0.09C8.43,8.86,8.76,8.33,9.08,7.8c0.08-0.12,0.08-0.25,0.11-0.38
		c0.16-0.66,0.32-1.32,0.48-1.99C9.67,5.43,9.66,5.43,9.65,5.43z"/>
	<path class="st5" d="M3.19,4.85c-0.14,0-0.29-0.07-0.4,0.01C2.68,4.93,2.63,5.09,2.55,5.21c-0.27,0.4-0.41,0.83-0.59,1.25
		C1.71,7.04,1.46,7.62,1.22,8.19C1.18,8.28,1.12,8.38,1.25,8.4c0.1,0.02,0.2,0.07,0.3-0.1c0.66-1.1,1.34-2.2,2.01-3.3
		C3.63,4.89,3.64,4.84,3.5,4.85C3.39,4.86,3.29,4.85,3.19,4.85z"/>
	<path class="st5" d="M6.18,5.18C5.58,6.16,4.99,7.13,4.4,8.1C4.26,8.32,4.13,8.54,4,8.75c-0.05,0.08-0.04,0.1,0.04,0.11
		c0.21,0.03,0.42,0.06,0.63,0.1c0.07,0.01,0.1-0.02,0.13-0.07c0.27-0.45,0.55-0.9,0.83-1.35C5.67,7.46,5.68,7.38,5.7,7.3
		c0.16-0.67,0.32-1.35,0.49-2.02C6.2,5.25,6.2,5.22,6.21,5.18C6.2,5.18,6.19,5.18,6.18,5.18z"/>
	<path class="st6" d="M1.31,14c0.09-0.49,0.55-0.89,1.03-0.88c0.48,0,0.8,0.4,0.71,0.88c-0.08,0.48-0.54,0.87-1.03,0.87
		C1.54,14.86,1.23,14.49,1.31,14z M2.7,13.99c0.05-0.28-0.16-0.51-0.44-0.51c-0.28,0-0.55,0.25-0.6,0.53
		c-0.04,0.28,0.15,0.5,0.43,0.5C2.38,14.5,2.65,14.27,2.7,13.99z"/>
	<path class="st6" d="M7.38,13.12c0.48,0,0.81,0.39,0.73,0.87c-0.08,0.48-0.54,0.87-1.02,0.88c-0.49,0-0.81-0.37-0.72-0.86
		C6.44,13.51,6.9,13.12,7.38,13.12z M7.13,14.5c0.29,0,0.56-0.23,0.62-0.5c0.05-0.28-0.14-0.52-0.42-0.52
		c-0.27-0.01-0.55,0.23-0.6,0.52C6.67,14.28,6.85,14.5,7.13,14.5z"/>
	<path class="st5" d="M4.22,4.61c0.45,0,0.9-0.01,1.34,0c0.15,0,0.14-0.1,0.18-0.18c0.06-0.11-0.04-0.1-0.1-0.11
		c-0.63-0.1-1.27-0.2-1.9-0.31c-0.07-0.01-0.11,0-0.13,0.08C3.6,4.17,3.58,4.24,3.55,4.3c-0.04,0.09-0.1,0.14-0.19,0.12
		C3.27,4.41,3.24,4.35,3.26,4.27c0.01-0.03,0.02-0.07,0.03-0.1C3.31,4.1,3.38,4,3.33,3.97C3.27,3.93,3.16,3.93,3.07,3.92
		C3.03,3.91,3.01,3.96,3,3.99C2.93,4.14,2.88,4.3,2.8,4.45c-0.04,0.09,0,0.1,0.07,0.1c0.45,0,0.91,0,1.36,0
		C4.23,4.56,4.22,4.59,4.22,4.61z"/>
	<path class="st5" d="M13.27,3.51c0.6-0.05,1.16-0.1,1.73-0.15c0.17-0.02,0.28-0.12,0.29-0.25c0.01-0.13-0.07-0.22-0.22-0.21
		C14.49,2.94,13.9,3,13.31,3.06c-0.13,0.01-0.21,0.09-0.24,0.21c-0.03,0.12,0.02,0.19,0.13,0.23C13.23,3.51,13.27,3.51,13.27,3.51z"
		/>
	<path class="st4" d="M5.58,2.89C5.44,3.22,5.3,3.54,5.16,3.87C5.14,3.92,5.14,3.94,5.2,3.95c0.2,0.03,0.4,0.06,0.6,0.09
		c0.07,0.01,0.08-0.02,0.1-0.08C6.04,3.57,5.91,3.11,5.58,2.89z"/>
	<path class="st4" d="M7.21,4.94c-0.2,0-0.38,0-0.56,0c-0.05,0-0.08,0.01-0.1,0.07C6.44,5.52,6.31,6.02,6.19,6.53
		c0.01,0,0.03,0.01,0.04,0.01C6.55,6.02,6.87,5.5,7.21,4.94z"/>
	<path class="st4" d="M8.87,8.68c-0.12,0.19-0.21,0.35-0.31,0.5C8.52,9.24,8.48,9.31,8.45,9.37C8.42,9.43,8.33,9.49,8.38,9.54
		C8.42,9.58,8.5,9.58,8.57,9.56C8.65,9.53,8.7,9.48,8.71,9.4c0.03-0.14,0.08-0.28,0.1-0.42C8.83,8.89,8.91,8.81,8.87,8.68z"/>
	<path class="st5" d="M5.41,8.42c-0.1,0.16-0.19,0.31-0.29,0.47C5.1,8.92,5.04,8.96,5.07,9C5.1,9.04,5.17,9.04,5.22,9.03
		c0.05-0.01,0.08-0.05,0.09-0.1c0.04-0.17,0.08-0.34,0.12-0.51C5.43,8.42,5.42,8.42,5.41,8.42z"/>
	<path class="st5" d="M6.16,4.63c0.04,0,0.08,0,0.11,0c0.06,0.01,0.09-0.02,0.1-0.08C6.39,4.49,6.4,4.44,6.32,4.44
		c-0.05,0-0.09-0.01-0.14-0.02C6.07,4.4,5.98,4.47,5.99,4.58C6.01,4.68,6.11,4.61,6.16,4.63z"/>
	<path class="st4" d="M6.11,2.97c0.1-0.18,0-0.19-0.14-0.19C6.02,2.84,6.06,2.9,6.11,2.97z"/>
	<path class="st7" d="M1.67,14.01c0.04-0.28,0.32-0.53,0.6-0.53c0.28,0,0.48,0.23,0.44,0.51c-0.05,0.28-0.32,0.52-0.61,0.52
		C1.82,14.51,1.62,14.28,1.67,14.01z M2.4,14c0.02-0.11-0.06-0.22-0.17-0.22c-0.12,0-0.24,0.1-0.26,0.22
		c-0.02,0.12,0.06,0.21,0.18,0.21C2.26,14.21,2.38,14.11,2.4,14z"/>
	<path class="st7" d="M7.32,13.48C7.6,13.48,7.8,13.72,7.75,14c-0.05,0.28-0.33,0.51-0.62,0.5c-0.28,0-0.46-0.22-0.41-0.51
		C6.77,13.71,7.05,13.47,7.32,13.48z M7.19,14.21c0.12,0,0.24-0.1,0.26-0.22c0.02-0.11-0.07-0.21-0.18-0.21
		c-0.12,0-0.23,0.1-0.25,0.22C6.99,14.11,7.07,14.21,7.19,14.21z"/>
	<path class="st8" d="M2.14,14.21c0.12,0,0.23-0.1,0.26-0.21c0.02-0.11-0.06-0.22-0.17-0.22c-0.12,0-0.24,0.1-0.26,0.22
		C1.94,14.11,2.02,14.21,2.14,14.21z"/>
	<path class="st8" d="M7.02,13.99c-0.02,0.12,0.05,0.21,0.17,0.22c0.12,0,0.24-0.1,0.26-0.22c0.02-0.11-0.07-0.21-0.18-0.21
		C7.15,13.78,7.04,13.87,7.02,13.99z"/>
</g>
</svg>
