<?xml version="1.0" encoding="utf-8"?>
<!-- Generator: Adobe Illustrator 23.0.5, SVG Export Plug-In . SVG Version: 6.00 Build 0)  -->
<svg version="1.1" id="Layer_1" xmlns="http://www.w3.org/2000/svg" xmlns:xlink="http://www.w3.org/1999/xlink" x="0px" y="0px"
	 viewBox="0 0 299.31 140.07" style="enable-background:new 0 0 299.31 140.07;" xml:space="preserve">
<style type="text/css">
	.st0{fill:#050404;}
	.st1{fill:#F2C64B;}
	.st2{fill:#F2C54B;}
	.st3{fill:#F8647C;}
	.st4{fill:#F1C54B;}
	.st5{fill:#F7637C;}
	.st6{fill:#28569B;}
	.st7{fill:#010304;}
	.st8{fill:#4F8BD3;}
</style>
<g>
	<g>
		<g>
			<path d="M151.99,44.13c1.65,0,2.93,0.59,3.81,1.78c0.71,0.94,1.07,2.07,1.07,3.41c0,2.39-0.8,5.12-2.41,8.18
				c-1.41,2.64-3.16,5.01-5.26,7.11c-1.38,1.36-2.47,2.04-3.26,2.04c-0.52,0-1-0.26-1.44-0.78c-0.32-0.37-0.48-0.79-0.48-1.26
				c0-0.86,0.75-1.85,2.26-2.96c2.12-1.58,3.81-3.31,5.07-5.18c1.85-2.72,2.78-5.01,2.78-6.89c0-0.77-0.17-1.33-0.5-1.7
				c-0.33-0.37-0.83-0.56-1.5-0.56c-1.36,0-3.28,0.99-5.78,2.96c-2.84,2.22-5.84,5.25-9,9.07c-4.02,4.86-7.09,9.65-9.18,14.37
				c-2.17,4.89-3.26,9.06-3.26,12.52c0,1.65,0.48,3.06,1.44,4.22c1.06,1.31,2.36,1.96,3.89,1.96c2.67,0,6.02-2.07,10.07-6.22
				c1.21-1.26,2.68-3.09,4.41-5.48c1.14-1.53,1.86-2.62,2.18-3.26c0.37-0.72,0.8-1.07,1.3-1.07c0.54,0,0.81,0.26,0.81,0.78
				c0,1.11-1.38,3.61-4.15,7.48c-2.3,3.24-4.83,5.88-7.59,7.92c-3.11,2.3-6.05,3.44-8.81,3.44c-2.89,0-5.12-1.3-6.7-3.89
				c-1.01-1.65-1.52-3.54-1.52-5.67c0-5.33,2.52-12.06,7.55-20.18c4.3-6.91,8.83-12.48,13.59-16.7
				C145.52,45.95,149.05,44.13,151.99,44.13z"/>
			<path d="M161.03,85.65c-0.81,1.43-1.62,2.64-2.41,3.63c-1.55,1.93-3.1,2.89-4.63,2.89c-1.33,0-2.37-0.63-3.11-1.89
				c-0.47-0.81-0.7-1.78-0.7-2.89c0-2.74,0.86-5.76,2.59-9.07c1.93-3.68,4.25-6.5,6.96-8.48c1.78-1.28,3.49-1.93,5.15-1.93
				c1.04,0,1.9,0.32,2.59,0.96c0.59,0.57,0.89,1.21,0.89,1.93c0,0.54-0.21,1.3-0.63,2.26c0.37,0.52,0.56,0.98,0.56,1.37
				c0,0.52-0.35,1.37-1.04,2.56c-0.72,1.21-1.43,2.81-2.15,4.81c-0.77,2.12-1.15,3.83-1.15,5.11c0,1.04,0.31,1.89,0.93,2.55
				c0.17,0.17,0.68,0.46,1.52,0.85c0.62,0.3,0.93,0.82,0.93,1.56c0,0.47-0.17,0.85-0.52,1.15c-0.37,0.32-0.8,0.48-1.3,0.48
				c-1.33,0-2.48-0.59-3.44-1.78c-0.79-0.96-1.18-2.17-1.18-3.63C160.89,87.6,160.93,86.78,161.03,85.65z M165.66,73.46
				c-0.3-0.54-0.62-0.94-0.96-1.2c-0.35-0.26-0.72-0.39-1.11-0.39c-1.88,0-3.91,1.64-6.11,4.92c-2.42,3.63-3.63,6.7-3.63,9.22
				c0,0.62,0.12,1.09,0.35,1.41c0.23,0.32,0.59,0.48,1.06,0.48c1.18,0,2.57-1.26,4.15-3.78c0.89-1.38,1.99-3.42,3.3-6.11
				c0.86-1.75,1.49-2.91,1.89-3.48C164.79,74.24,165.14,73.88,165.66,73.46z"/>
			<path d="M176.54,79.57c2.42-2.59,5.21-5.12,8.37-7.59c1.14-0.89,2.35-1.71,3.63-2.48c0.64-0.37,1.05-0.56,1.22-0.56
				c0.37,0,0.74,0.27,1.11,0.81c0.22,0.3,0.33,0.57,0.33,0.81c0,0.44-0.47,1.05-1.41,1.82c-2.52,2-3.78,3.51-3.78,4.52
				c0,0.57,0.32,0.85,0.96,0.85c1.06,0,2.89-0.88,5.48-2.63c0.44-0.3,0.81-0.44,1.11-0.44c0.2,0,0.39,0.1,0.59,0.3
				c0.22,0.22,0.33,0.46,0.33,0.7c0,0.74-1.04,1.88-3.11,3.41c-2.17,1.63-4.23,2.44-6.18,2.44c-0.79,0-1.52-0.21-2.19-0.63
				c-0.57-0.34-0.85-0.96-0.85-1.85c0-0.62,0.26-1.32,0.78-2.11c-1.95,1.38-4.25,3.75-6.89,7.11c-1.53,2.07-3.05,4.63-4.55,7.67
				c-0.57,1.14-1.27,1.7-2.11,1.7c-0.91,0-1.37-0.43-1.37-1.3c0-0.84,0.72-3.08,2.15-6.74c2.12-5.43,4.34-9.64,6.67-12.63
				c1.43-1.85,2.63-2.78,3.59-2.78c0.32,0,0.62,0.1,0.89,0.3c0.32,0.25,0.48,0.56,0.48,0.93s-0.25,0.89-0.74,1.56
				c-0.1,0.12-0.75,0.95-1.96,2.48C177.98,76.7,177.13,78.14,176.54,79.57z"/>
			<path d="M205.17,67.91c-1.61,2.49-3.09,5.28-4.44,8.37c-1.95,4.39-2.93,7.68-2.93,9.85c0,0.62,0.13,1.09,0.39,1.41
				c0.26,0.32,0.65,0.48,1.17,0.48c1.23,0,2.73-1.16,4.48-3.48c1.11-1.43,2.1-2.86,2.96-4.3c0.47-0.81,0.98-1.22,1.52-1.22
				c0.32,0,0.59,0.11,0.81,0.33c0.2,0.22,0.3,0.44,0.3,0.67c0,0.91-1.2,2.95-3.59,6.11c-2.86,3.8-5.48,5.7-7.85,5.7
				c-1.26,0-2.31-0.58-3.15-1.74c-0.52-0.74-0.78-1.79-0.78-3.15c0-2.99,0.86-6.47,2.59-10.44c0.42-0.99,1.58-3.37,3.48-7.15
				c-0.67,0.17-1.17,0.26-1.52,0.26c-0.52,0-0.98-0.12-1.37-0.37c-0.54-0.34-0.82-0.78-0.82-1.3c0-0.62,0.36-1.11,1.07-1.48
				c0.2-0.1,1.11-0.26,2.74-0.48c0.59-0.1,1.46-0.33,2.59-0.7c0.86-1.56,2.27-3.67,4.22-6.33c1.09-1.48,1.84-2.44,2.26-2.89
				c0.59-0.62,1.11-0.93,1.55-0.93c0.32,0,0.64,0.17,0.96,0.52c0.3,0.32,0.44,0.64,0.44,0.96c0,0.64-0.69,1.91-2.07,3.81
				c-0.91,1.23-1.59,2.23-2.04,3c2.74-0.74,4.7-1.11,5.89-1.11c1.36,0,2.04,0.57,2.04,1.7c0,0.57-0.23,0.99-0.7,1.26
				c-0.25,0.15-0.89,0.27-1.93,0.37c-0.42-0.02-2.28,0.44-5.59,1.41C206.96,67.33,206.06,67.61,205.17,67.91z"/>
			<path d="M233.24,65.65c2.32,0.84,4.07,1.89,5.26,3.15c2.02,2.12,3.04,4.59,3.04,7.41c0,3.38-1.02,6.59-3.07,9.63
				c-1.93,2.79-4.38,5-7.37,6.63c-3.01,1.63-6.11,2.44-9.29,2.44c-2.47,0-5.13-0.63-8-1.89c-0.22,0.67-0.36,1.11-0.41,1.33
				c-0.32,1.16-0.83,1.74-1.52,1.74c-0.72,0-1.33-0.41-1.85-1.22c-0.37-0.57-0.55-1.15-0.55-1.74c0-0.86,0.54-2.68,1.63-5.44
				c2.22-5.68,4.17-10.13,5.85-13.37c1.04-2,3.18-5.8,6.44-11.41c1.43-2.42,3.49-5.72,6.18-9.89c0.64-0.99,1.26-1.99,1.85-3
				c-1.24,0.4-2.78,1.04-4.63,1.93c-1.58,0.74-2.51,1.11-2.78,1.11c-0.37,0-0.69-0.19-0.96-0.56c-0.27-0.37-0.41-0.8-0.41-1.3
				c0-0.77,0.26-1.32,0.78-1.67c0.94-0.67,2.62-1.49,5.04-2.48c5.06-2.05,9.15-3.07,12.26-3.07c2.62,0,4.74,0.65,6.37,1.96
				c1.63,1.31,2.44,2.95,2.44,4.93c0,4.07-2.36,7.59-7.07,10.55C239.62,63.2,236.55,64.61,233.24,65.65z M214.83,89.87
				c0.84,0.49,1.46,0.81,1.85,0.96c1.06,0.42,2.47,0.63,4.22,0.63c5.26,0,9.47-2.09,12.63-6.26c2.69-3.53,4.04-7,4.04-10.41
				c0-2.32-1.03-4.16-3.07-5.52c-1.21-0.79-2.63-1.18-4.26-1.18c-0.62,0-1.53,0.14-2.74,0.41c-0.22,0.05-0.44,0.07-0.67,0.07
				c-0.59,0-1.09-0.43-1.48-1.3c-1.98,3.01-4.2,7.22-6.67,12.63C217.43,82.67,216.14,85.99,214.83,89.87z M227.68,63.35
				c4.2-0.77,8.15-2.26,11.85-4.48c4.3-2.59,6.44-5.17,6.44-7.74c0-1.19-0.57-2.11-1.7-2.78c-0.74-0.44-1.78-0.67-3.11-0.67
				c-0.86,0-1.79,0.09-2.78,0.28c-0.99,0.19-2.04,0.46-3.15,0.83c0.42,0.32,0.63,0.72,0.63,1.19c0,0.64-0.41,1.51-1.22,2.59
				c-0.27,0.37-0.77,1.1-1.48,2.18c-0.27,0.47-1.1,1.72-2.48,3.74C229.33,60.5,228.33,62.12,227.68,63.35z"/>
			<path d="M254.74,86.09c-1.06,1.48-2,2.67-2.81,3.56c-1.43,1.58-2.85,2.37-4.26,2.37c-1.21,0-2.15-0.54-2.81-1.63
				c-0.47-0.76-0.7-1.68-0.7-2.74c0-3.18,1.36-6.84,4.07-10.96c1.26-1.93,2.51-3.39,3.74-4.41c0.96-0.81,1.75-1.22,2.37-1.22
				c0.35,0,0.67,0.15,0.96,0.44c0.25,0.27,0.37,0.54,0.37,0.82c0,0.47-0.46,1.23-1.37,2.3c-2.05,2.44-3.6,4.69-4.67,6.74
				c-1.23,2.4-1.85,4.27-1.85,5.63c0,0.35,0.08,0.61,0.24,0.8c0.16,0.18,0.39,0.28,0.68,0.28c1.26,0,3.01-1.8,5.26-5.41
				c1.16-1.88,2.16-3.95,3-6.22c0.44-1.23,1.02-2.33,1.74-3.3c0.69-0.86,1.37-1.3,2.04-1.3c0.37,0,0.7,0.16,1,0.48
				c0.32,0.35,0.48,0.73,0.48,1.15c0,0.89-0.85,2.89-2.56,6c-1.16,2.15-1.74,3.94-1.74,5.37c0,1.53,0.41,2.84,1.22,3.93
				c0.22,0.3,0.9,0.76,2.04,1.41c0.54,0.32,0.81,0.84,0.81,1.55c0,0.44-0.19,0.83-0.57,1.15c-0.38,0.32-0.85,0.48-1.39,0.48
				c-1.23,0-2.36-0.49-3.37-1.48c-0.91-0.89-1.49-2.17-1.74-3.85C254.87,87.79,254.81,87.15,254.74,86.09z"/>
			<path d="M266.93,87.46c2.25-0.76,4.22-1.15,5.92-1.15c2.86,0,4.3,0.74,4.3,2.22c0,0.44-0.17,0.85-0.52,1.22
				c-0.35,0.37-0.74,0.56-1.19,0.56c-0.27,0-0.85-0.11-1.74-0.33c-0.52-0.15-1.02-0.22-1.52-0.22c-2.1,0-4.09,0.44-5.96,1.33
				c-1.33,0.64-2.22,0.96-2.67,0.96c-0.57,0-1.06-0.19-1.48-0.56c-0.39-0.35-0.59-0.73-0.59-1.15c0-1.01,1.21-3.05,3.63-6.11
				c3.63-4.52,7.47-8.37,11.52-11.55c-2.69,0.32-4.53,0.48-5.52,0.48c-2.37,0-3.56-0.7-3.56-2.11c0-0.44,0.15-0.81,0.44-1.11
				c0.27-0.27,0.58-0.41,0.93-0.41c0.3,0,0.95,0.09,1.96,0.26c0.39,0.07,1,0.11,1.81,0.11c2.12,0,4.18-0.23,6.18-0.7
				c0.76-0.17,1.42-0.26,1.96-0.26c0.62,0,1.13,0.22,1.56,0.67c0.32,0.32,0.48,0.72,0.48,1.19c0,0.81-0.69,1.7-2.07,2.67
				c-4.05,3.21-6.9,5.67-8.55,7.37C269.92,83.32,268.14,85.53,266.93,87.46z"/>
			<path d="M283.35,87.46c2.25-0.76,4.22-1.15,5.92-1.15c2.86,0,4.3,0.74,4.3,2.22c0,0.44-0.17,0.85-0.52,1.22
				c-0.35,0.37-0.74,0.56-1.19,0.56c-0.27,0-0.85-0.11-1.74-0.33c-0.52-0.15-1.02-0.22-1.52-0.22c-2.1,0-4.09,0.44-5.96,1.33
				c-1.33,0.64-2.22,0.96-2.67,0.96c-0.57,0-1.06-0.19-1.48-0.56c-0.39-0.35-0.59-0.73-0.59-1.15c0-1.01,1.21-3.05,3.63-6.11
				c3.63-4.52,7.47-8.37,11.52-11.55c-2.69,0.32-4.53,0.48-5.52,0.48c-2.37,0-3.56-0.7-3.56-2.11c0-0.44,0.15-0.81,0.44-1.11
				c0.27-0.27,0.58-0.41,0.93-0.41c0.3,0,0.95,0.09,1.96,0.26c0.39,0.07,1,0.11,1.81,0.11c2.12,0,4.18-0.23,6.18-0.7
				c0.76-0.17,1.42-0.26,1.96-0.26c0.62,0,1.13,0.22,1.56,0.67c0.32,0.32,0.48,0.72,0.48,1.19c0,0.81-0.69,1.7-2.07,2.67
				c-4.05,3.21-6.9,5.67-8.55,7.37C286.33,83.32,284.56,85.53,283.35,87.46z"/>
		</g>
	</g>
	<g>
		<path class="st0" d="M4.53,81.32c-3.12-0.53-4.97-2.84-4.44-5.93c2-11.62,4.05-23.23,6.14-34.85c0.47-2.63,2.92-4.61,5.56-4.66
			c1.26-0.03,2.49,0.07,3.75,0.04c1.58-0.04,3.44,0.8,4.61-0.15c1.14-0.93,1.47-2.93,2.11-4.47c1.83-4.36,2.07-4.53,6.35-3.83
			c0.96,0.16,1.41-0.01,1.81-1.11c2.79-7.63,11.03-12.41,18.33-10.72c0.45,0.1,0.98,0.43,1.34,0.26c2.21-1.06,4.01-0.14,5.91,0.14
			c1.15,0.17,1.53-0.01,1.92-1.22C61.29,4.33,73.21-2.37,82.81,0.78c7.93,2.6,11.66,10.97,8.68,19.69
			c-0.37,1.07-0.14,1.31,0.79,1.39c1.13,0.11,2.23,0.32,3.34,0.5c2.29,0.38,3.02,1.47,2.47,3.83c-0.83,3.56-1.67,7.12-2.61,10.67
			c-0.28,1.05-0.04,1.3,0.96,1.32c6.05,0.12,12.09,0.29,18.12,0.49c0.72,0.02,1.14-0.14,1.57-0.85c1.8-3.01,3.65-6,5.52-8.97
			c0.4-0.63,0.36-0.98-0.01-1.48c-1.14-1.56-1.19-3.39-0.04-5.36c1.14-1.95,2.82-3.01,4.98-3.22c5.66-0.53,11.31-1.09,16.97-1.62
			c3.09-0.29,5.29,1.64,5.11,4.46c-0.19,2.96-2.44,5.33-5.64,5.68c-5.66,0.62-11.32,1.14-16.97,1.6c-1.04,0.09-1.54,0.43-2.09,1.33
			c-11.48,18.81-23.01,37.61-34.51,56.42c-1.85,3.02-4.29,5.21-7.63,6.36c-1.45,0.5-2.88,0.5-4.54,0.66
			c1.02,1.16,1.96,2.14,2.6,3.36c2.23,4.26,4.54,8.47,6.63,12.81c2.12,4.4-1.96,10.04-7.27,10.22c-1,0.03-1.98,0-3.08,0
			c3.66,6.05,2.69,12.03-2.59,16.59c-4.68,4.04-11.17,4.56-15.11,1.16c-2.49-2.14-3.54-5.02-3.11-8.6c0.42-3.53,2.33-6.49,5.18-9.04
			c-11.35,0-22.53,0-33.83,0c4.2,5.05,2.33,12.07-2.26,16.24c-4.72,4.29-11.55,4.85-15.56,1.25c-2.1-1.89-3.12-4.36-3.02-7.41
			c0.13-3.93,2.08-7.22,5.4-10.19c-1.78,0-3.32,0.03-4.84-0.01c-2.31-0.06-3.93-1.58-4.05-3.75c-0.19-3.33,2.65-6.08,6.32-6.08
			c21.45-0.01,42.9,0,64.35,0c0.5,0,0.99,0,1.71,0c-1.33-2.51-2.47-4.83-3.75-7.05c-1.41-2.44-3.64-3.97-6.55-4.48
			c-6.35-1.13-12.73-2.16-19.09-3.23c-8.62-1.45-17.25-2.9-25.87-4.38c-2.98-0.51-4.3-3.01-3.21-5.95c0.21-0.55,0.53-1.09,0.84-1.7
			C12.9,82.73,8.71,82.03,4.53,81.32z M78.73,117.24c1.76,0,3.35-0.35,4.51-2.01c1.15-1.65,0.89-3.12,0.11-4.56
			c-1.65-3.05-3.31-6.1-4.77-9.27c-2.73-5.93-7.54-8.97-14.3-10.01c-14.09-2.16-28.07-4.67-42.08-7.04
			c-1.73-0.29-2.74,0.12-3.19,1.41c-0.48,1.37,0.16,2.22,1.85,2.51c14.71,2.49,29.42,4.97,44.13,7.47c4.29,0.73,7.33,3.01,9.22,6.66
			c1.37,2.65,2.71,5.32,4.06,7.99c0.32,0.64,0.7,1.25,0.06,2.1c-0.6,0.8-1.32,0.68-2.03,0.68c-22.51,0-45.02,0-67.54,0.01
			c-0.57,0-1.17-0.01-1.74,0.15c-1.05,0.29-1.71,1.06-1.78,2.08c-0.06,0.99,0.43,1.67,1.47,1.78c0.47,0.05,0.96,0.03,1.44,0.03
			c11.76,0,23.52,0,35.29,0C55.21,117.22,66.97,117.21,78.73,117.24z M91.16,38.08c0.93,0.01,1.32-0.22,1.54-1.16
			c0.79-3.46,1.61-6.93,2.49-10.39c0.24-0.96-0.03-1.3-0.93-1.34c-0.62-0.02-1.2-0.19-1.81-0.27c-2.28-0.31-2.28-0.31-3.09,2.08
			c-0.18,0.52-0.36,1.04-0.52,1.57c-0.3,1-0.88,1.7-1.95,1.5c-1.01-0.19-1.17-0.95-0.8-1.97c0.37-0.99,0.59-2.02,1.01-2.99
			c0.35-0.82,0.15-1.04-0.64-1.16c-4.59-0.7-9.16-1.47-13.74-2.2c-4.02-0.65-8.06-1.25-12.07-1.96c-1.1-0.19-1.56-0.03-1.97,1.22
			c-0.77,2.39-1.82,4.73-1.59,7.19c0.07,0.75-0.25,1.63-0.52,2.44c-0.32,0.94-0.22,1.47,0.84,1.5c0.62,0.02,1.2,0.19,1.81,0.28
			c1.99,0.31,2.71,1.26,2.17,3.31c-0.35,1.34,0.04,1.61,1.28,1.6c4.78-0.06,9.54-0.02,14.31-0.02c-0.04,0.25-0.09,0.5-0.13,0.75
			C81.62,38.05,86.4,38.02,91.16,38.08z M80.26,90.69c2.68-0.58,4.85-2.03,6.31-4.42c8.91-14.56,17.77-29.15,26.67-43.72
			c0.48-0.79,0.53-1.1-0.45-1.1c-2.5,0-5-0.05-7.49-0.13c-0.62-0.02-0.97,0.18-1.32,0.76c-5.2,8.55-10.49,17.05-15.58,25.65
			c-1.34,2.26-1.34,4.86-2.01,7.29c-0.79,2.87-1.41,5.76-2.12,8.64c-0.79,3.19-3.24,4.95-6.34,4.58c-2.15-0.26-2.15-0.26-3.26,1.99
			C76.58,90.52,78.27,91.13,80.26,90.69z M78.93,2.93c-7.96-0.66-15.45,4.34-18.27,12.09c-0.52,1.43-0.34,1.85,1.06,2.06
			c8.49,1.29,16.94,2.66,25.4,4.04c0.95,0.15,1.45-0.05,1.66-1.09c0.18-0.86,0.45-1.73,0.59-2.27C90.7,10.01,86.01,3.52,78.93,2.93z
			 M81.31,40.93c-1.03,0.71-1.57,2.25-2.29,3.43c-7.36,12.02-14.7,24.06-22.11,36.07c-0.7,1.13-0.48,1.35,0.57,1.48
			c1.68,0.2,3.34,0.49,4.99,0.81c1.09,0.22,1.75,0.02,2.48-1.19c7.54-12.45,15.16-24.87,22.73-37.3c0.64-1.04,1.99-2.31,1.64-3.11
			c-0.36-0.8-2.09-0.19-3.19-0.31c-0.28-0.03-0.58,0-0.87,0C83.91,40.9,82.44,40.15,81.31,40.93z M47.3,39.66
			c-0.73-0.02-1.05,0.31-1.4,0.89c-7.07,11.6-14.15,23.2-21.26,34.78c-0.64,1.04-0.45,1.29,0.59,1.4c1.78,0.19,3.54,0.48,5.26,0.86
			c1.02,0.22,1.52-0.1,2.11-1.07c6.87-11.3,13.78-22.58,20.68-33.86c0.53-0.87,1.06-1.74,1.81-2.98
			C52.3,39.69,49.79,39.72,47.3,39.66z M20.3,76.03c0.95,0.18,1.09-0.58,1.4-1.08c6.16-10.03,12.31-20.07,18.46-30.11
			c0.86-1.41,1.69-2.84,2.6-4.22c0.54-0.82,0.28-0.96-0.49-0.98c-2.01-0.04-4.03-0.08-6.01-0.25c-1.07-0.09-1.64,0.27-2.24,1.27
			c-6.24,10.28-12.53,20.54-18.8,30.8c-0.67,1.09-1.33,2.19-2.05,3.37C15.63,75.24,17.98,75.59,20.3,76.03z M69.7,40.55
			c-1.07,0.74-1.62,2.34-2.37,3.57c-3.97,6.48-7.91,12.97-11.93,19.42c-0.96,1.54-1.45,3.1-1.84,4.74
			c-0.96,3.99-1.98,7.97-2.99,11.96c-0.05,0.19-0.14,0.33,0.02,0.49c0.77,0.73,2.78,0.27,3.44-0.82
			c7.78-12.69,15.56-25.38,23.36-38.05c0.62-1.01,0.73-1.47-0.59-1.36c-1.02,0.09-2.02,0.02-3.04,0.02
			C72.38,40.5,70.86,39.75,69.7,40.55z M85.1,53.66c-5.83,9.51-11.64,19.03-17.52,28.52c-0.73,1.18-0.4,1.33,0.6,1.46
			c1.82,0.23,3.62,0.54,5.41,0.87c0.79,0.14,1.27,0,1.79-0.86c3.14-5.22,6.35-10.4,9.55-15.59c0.74-1.2,0.78-2.47,1.08-3.7
			c1.61-6.48,3.15-12.97,4.71-19.45c-0.08-0.02-0.15-0.04-0.23-0.06C88.7,47.78,86.9,50.72,85.1,53.66z M23.28,39.32
			c-1.03,0.71-1.52,2.27-2.31,3.42c-2.63,3.87-4.03,8.12-5.82,12.26c-2.43,5.63-4.82,11.28-7.21,16.92
			c-0.34,0.81-0.93,1.82,0.34,2.07c1.01,0.2,1.93,0.64,2.9-0.98c6.49-10.79,13.08-21.53,19.69-32.26c0.7-1.14,0.8-1.62-0.62-1.54
			c-1.02,0.06-2.02,0.01-3.03,0.01C25.89,39.21,24.4,38.55,23.28,39.32z M39.05,71.03c-1.29,2.12-2.56,4.25-3.88,6.35
			c-0.47,0.74-0.39,0.99,0.42,1.09c2.06,0.26,4.1,0.56,6.12,0.94c0.69,0.13,0.95-0.16,1.29-0.71c2.68-4.42,5.37-8.83,8.09-13.23
			c0.46-0.74,0.57-1.51,0.76-2.27c1.61-6.59,3.18-13.18,4.76-19.76c0.08-0.32,0.12-0.64,0.17-0.96c-0.08-0.01-0.17-0.01-0.25-0.02
			C50.7,51.98,44.87,61.51,39.05,71.03z M25.95,128.72c0.83-4.7-2.3-8.56-6.97-8.6c-4.73-0.04-9.28,3.83-10.11,8.63
			c-0.83,4.78,2.24,8.46,7.04,8.45C20.66,137.19,25.12,133.43,25.95,128.72z M65.36,137.2c4.74-0.03,9.27-3.9,10.03-8.57
			c0.76-4.69-2.45-8.52-7.13-8.51c-4.69,0.01-9.15,3.87-9.97,8.64C57.46,133.55,60.53,137.22,65.36,137.2z M13.36,50.08
			c2.05-3.25,3.79-6.58,5.15-10.07c0.34-0.87,0.21-1.07-0.62-1.08c-2.16-0.02-4.31-0.11-6.47-0.16c-1.11-0.02-2.07,0.52-2.28,1.64
			c-1.39,7.58-2.7,15.15-4.03,22.73c0.07,0.02,0.15,0.03,0.22,0.05C8,58.82,10.62,54.42,13.36,50.08z M50.47,36.88
			c1.51,0.04,1.38-0.96,1.75-1.73c0.54-1.12-0.37-1.01-0.95-1.1c-6.19-1-12.39-1.98-18.57-2.99c-0.67-0.11-1.09-0.04-1.27,0.8
			c-0.14,0.67-0.39,1.34-0.66,1.99c-0.35,0.87-1,1.33-1.9,1.2c-0.84-0.12-1.09-0.7-0.92-1.53c0.07-0.34,0.16-0.67,0.27-1.01
			c0.21-0.65,0.85-1.61,0.42-1.89c-0.65-0.43-1.67-0.39-2.55-0.51c-0.46-0.07-0.59,0.36-0.72,0.67c-0.64,1.49-1.2,3-1.9,4.48
			c-0.44,0.93,0.01,0.93,0.68,0.93c4.43-0.01,8.86-0.01,13.29-0.01c-0.04,0.22-0.08,0.44-0.11,0.65
			C41.72,36.83,46.11,36.75,50.47,36.88z M33,27.18c-0.24,0.66-0.24,0.94,0.47,1.04c3.15,0.48,6.29,1.01,9.42,1.54
			c0.73,0.13,0.79-0.38,0.99-0.85c1.28-3.03,2.54-6.08,3.9-9.09c0.45-1,0.27-1.4-0.68-1.48c-0.61-0.05-1.23-0.1-1.44-0.12
			C39.94,18.22,34.94,21.89,33,27.18z M142.82,24.56c1.63-0.15,2.73-1.16,2.87-2.49c0.13-1.26-0.71-2.18-2.13-2.05
			c-5.75,0.51-11.5,1.07-17.25,1.63c-1.23,0.12-2.08,0.84-2.37,2.07c-0.28,1.18,0.23,1.91,1.23,2.26c0.33,0.12,0.75,0.07,0.75,0.07
			C131.81,25.54,137.32,25.07,142.82,24.56z M95.53,41.04c-0.61-0.01-0.97,0.04-1.15,0.8c-1.35,5.65-2.73,11.31-3.85,17.04
			c3.58-5.84,7.15-11.68,10.92-17.83C99.28,41.05,97.4,41.07,95.53,41.04z M46.55,29.63c-0.2,0.46-0.2,0.71,0.33,0.79
			c1.95,0.28,3.9,0.58,5.83,0.91c0.65,0.11,0.81-0.18,1.01-0.75c1.43-3.93,0.19-8.41-3.08-10.59
			C49.28,23.23,47.92,26.43,46.55,29.63z M61.18,40.08c-0.51-0.01-0.81,0.06-0.95,0.67c-1.18,4.98-2.39,9.96-3.6,14.94
			c0.13,0.04,0.27,0.07,0.4,0.11c3.14-5.13,6.28-10.27,9.6-15.71C64.63,40.09,62.9,40.1,61.18,40.08z M2.88,75.98
			c0.06,1.72,2.51,3.24,4.37,2.77c0.71-0.18,0.91-0.88,1.08-1.37c0.2-0.58-0.48-0.35-0.79-0.41c-2.8-0.57-3.7-2.45-2.5-5.35
			c0.93-2.25,1.9-4.5,2.86-6.74c-0.11-0.03-0.22-0.06-0.33-0.09C5.11,68.27,2.74,71.8,2.88,75.98z M65.89,86.23
			c-1.23-0.2-1.36,0.98-1.7,1.61c-0.45,0.85,0.51,0.6,0.91,0.68c1.5,0.31,3.03,0.53,4.54,0.81c2.13,0.39,2.13,0.4,3.29-1.95
			C70.58,87,68.24,86.61,65.89,86.23z M60.42,87.72c1.26,0.16,1.07-1.27,2.09-2.01c-2.76-0.44-5.18-0.94-7.69-1.18
			c-1.04-0.1-0.96,1.25-1.72,1.99C55.65,86.94,58.01,87.41,60.42,87.72z M51.3,84.39c0.4-0.81-0.53-0.5-0.85-0.56
			c-1.96-0.39-3.96-0.66-5.93-1.03c-1.26-0.24-1.39,0.88-1.71,1.52c-0.4,0.8,0.53,0.52,0.85,0.58c2,0.4,4.04,0.72,6.14,1.08
			C50.84,86.04,51,85,51.3,84.39z M33.76,81.06c-1.17-0.22-1.34,0.78-1.65,1.4c-0.47,0.97,0.54,0.58,0.89,0.66
			c1.59,0.33,3.28,0.41,4.8,0.88c1.6,0.49,2.41-0.12,2.93-1.74C38.42,81.86,36.07,81.5,33.76,81.06z M23.04,79.38
			c-1.11-0.23-1.28,0.63-1.59,1.22c-0.5,0.96,0.45,0.65,0.84,0.73c1.64,0.32,3.35,0.47,4.93,0.9c1.45,0.4,2.28-0.01,2.7-1.69
			C27.63,80.17,25.3,79.85,23.04,79.38z M12.35,77.6c-1.33-0.25-1.3,0.93-1.94,1.69c2.49,0.42,4.86,0.84,7.25,1.21
			c1.2,0.19,0.97-1.08,1.97-1.66C16.92,78.39,14.62,78.03,12.35,77.6z M79.81,81.6c-0.38,0.61-0.78,1.22-1.1,1.85
			c-0.27,0.54-1.11,1.13-0.66,1.64c0.38,0.43,1.2,0.41,1.9,0.18c0.73-0.24,1.2-0.75,1.37-1.52c0.32-1.39,0.74-2.77,0.99-4.16
			c0.15-0.85,0.91-1.63,0.52-2.92C81.7,78.51,80.75,80.05,79.81,81.6z M46.14,78.7c-0.21,0.36-0.77,0.78-0.46,1.16
			c0.31,0.37,0.91,0.38,1.45,0.25c0.49-0.12,0.75-0.49,0.87-0.97c0.4-1.66,0.81-3.32,1.22-4.98c-0.09-0.01-0.18-0.01-0.27-0.02
			C48.01,75.65,47.05,77.16,46.14,78.7z M57.43,37.09c0.62,0.06,0.87-0.24,1-0.83c0.13-0.58,0.2-1.05-0.52-1.11
			c-0.47-0.04-0.93-0.11-1.39-0.18c-1.11-0.18-1.99,0.53-1.83,1.61c0.13,0.95,1.2,0.24,1.67,0.5C56.76,37.08,57.1,37.06,57.43,37.09
			z M54.46,18.89c0.47,0.66,0.86,1.21,1.34,1.88C56.81,19,55.79,18.92,54.46,18.89z"/>
		<path class="st1" d="M76.85,38.05c4.77,0,9.55-0.03,14.3,0.03c0.93,0.01,1.32-0.22,1.54-1.16c0.79-3.46,1.61-6.93,2.49-10.39
			c0.24-0.96-0.03-1.3-0.93-1.34c-0.62-0.02-1.2-0.19-1.81-0.27c-2.28-0.31-2.28-0.31-3.09,2.08c-0.18,0.52-0.36,1.04-0.52,1.57
			c-0.3,1-0.88,1.7-1.95,1.5c-1.01-0.19-1.17-0.95-0.8-1.97c0.37-0.99,0.59-2.02,1.01-2.99c0.35-0.82,0.15-1.04-0.64-1.16
			c-4.59-0.7-9.16-1.47-13.74-2.2c-4.02-0.65-8.06-1.25-12.07-1.96c-1.1-0.19-1.56-0.03-1.97,1.22c-0.77,2.39-1.82,4.73-1.59,7.19
			c0.07,0.75-0.25,1.63-0.52,2.44c-0.32,0.94-0.22,1.47,0.84,1.5c0.62,0.02,1.2,0.19,1.81,0.28c1.99,0.31,2.71,1.26,2.17,3.31
			c-0.35,1.34,0.04,1.61,1.28,1.6c4.78-0.06,9.54-0.02,14.31-0.02C76.94,37.56,76.9,37.81,76.85,38.05z"/>
		<path class="st2" d="M85.26,40.81c-1.35,0.1-2.82-0.66-3.95,0.12c-1.03,0.71-1.57,2.25-2.29,3.43
			c-7.36,12.02-14.7,24.06-22.11,36.07c-0.7,1.13-0.48,1.35,0.57,1.48c1.68,0.2,3.34,0.49,4.99,0.81c1.09,0.22,1.75,0.02,2.48-1.19
			c7.54-12.45,15.16-24.87,22.73-37.3c0.64-1.04,1.99-2.31,1.64-3.11c-0.36-0.8-2.09-0.19-3.19-0.31
			C85.84,40.78,85.55,40.81,85.26,40.81z"/>
		<path class="st3" d="M55.08,39.69c-2.79,0-5.29,0.03-7.78-0.02c-0.73-0.02-1.05,0.31-1.4,0.89c-7.07,11.6-14.15,23.2-21.26,34.78
			c-0.64,1.04-0.45,1.29,0.59,1.4c1.78,0.19,3.54,0.48,5.26,0.86c1.02,0.22,1.52-0.1,2.11-1.07c6.87-11.3,13.78-22.58,20.68-33.86
			C53.81,41.8,54.33,40.92,55.08,39.69z"/>
		<path class="st3" d="M13.15,74.83c2.47,0.41,4.83,0.76,7.14,1.21c0.95,0.18,1.09-0.58,1.4-1.08
			c6.16-10.03,12.31-20.07,18.46-30.11c0.86-1.41,1.69-2.84,2.6-4.22c0.54-0.82,0.28-0.96-0.49-0.98c-2.01-0.04-4.03-0.08-6.01-0.25
			c-1.07-0.09-1.64,0.27-2.24,1.27c-6.24,10.28-12.53,20.54-18.8,30.8C14.54,72.55,13.87,73.64,13.15,74.83z"/>
		<path class="st2" d="M73.76,40.52c-1.38-0.01-2.9-0.77-4.06,0.03c-1.07,0.74-1.62,2.34-2.37,3.57
			c-3.97,6.48-7.91,12.97-11.93,19.42c-0.96,1.54-1.45,3.1-1.84,4.74c-0.96,3.99-1.98,7.97-2.99,11.96
			c-0.05,0.19-0.14,0.33,0.02,0.49c0.77,0.73,2.78,0.27,3.44-0.82c7.78-12.69,15.56-25.38,23.36-38.05
			c0.62-1.01,0.73-1.47-0.59-1.36C75.77,40.59,74.77,40.52,73.76,40.52z"/>
		<path class="st4" d="M90.5,44.84c-1.8,2.94-3.6,5.88-5.4,8.82c-5.83,9.51-11.64,19.03-17.52,28.52c-0.73,1.18-0.4,1.33,0.6,1.46
			c1.82,0.23,3.62,0.54,5.41,0.87c0.79,0.14,1.27,0,1.79-0.86c3.14-5.22,6.35-10.4,9.55-15.59c0.74-1.2,0.78-2.47,1.08-3.7
			c1.61-6.48,3.15-12.97,4.71-19.45C90.65,44.88,90.57,44.86,90.5,44.84z"/>
		<path class="st5" d="M27.22,39.22c-1.33-0.01-2.82-0.68-3.94,0.09c-1.03,0.71-1.52,2.27-2.31,3.42
			c-2.63,3.87-4.03,8.12-5.82,12.26c-2.43,5.63-4.82,11.28-7.21,16.92c-0.34,0.81-0.93,1.82,0.34,2.07c1.01,0.2,1.93,0.64,2.9-0.98
			c6.49-10.79,13.08-21.53,19.69-32.26c0.7-1.14,0.8-1.62-0.62-1.54C29.24,39.27,28.23,39.22,27.22,39.22z"/>
		<path class="st5" d="M56.52,42.46c-5.82,9.52-11.64,19.05-17.46,28.57c-1.29,2.12-2.56,4.25-3.88,6.35
			c-0.47,0.74-0.39,0.99,0.42,1.09c2.06,0.26,4.1,0.56,6.12,0.94c0.69,0.13,0.95-0.16,1.29-0.71c2.68-4.42,5.37-8.83,8.09-13.23
			c0.46-0.74,0.57-1.51,0.76-2.27c1.61-6.59,3.18-13.18,4.76-19.76c0.08-0.32,0.12-0.64,0.17-0.96
			C56.69,42.47,56.6,42.47,56.52,42.46z"/>
		<path class="st6" d="M8.86,128.74c0.83-4.79,5.38-8.67,10.11-8.63c4.67,0.04,7.8,3.9,6.97,8.6c-0.83,4.71-5.29,8.47-10.04,8.48
			C11.1,137.21,8.03,133.52,8.86,128.74z M22.46,128.63c0.45-2.71-1.53-5.02-4.27-5c-2.72,0.03-5.42,2.42-5.85,5.2
			c-0.42,2.7,1.47,4.89,4.2,4.87C19.32,133.68,22,131.39,22.46,128.63z"/>
		<path class="st6" d="M68.26,120.12c4.69-0.01,7.89,3.82,7.13,8.51c-0.76,4.67-5.29,8.54-10.03,8.57
			c-4.83,0.03-7.91-3.64-7.07-8.44C59.11,123.99,63.57,120.13,68.26,120.12z M65.82,133.7c2.81,0.02,5.53-2.21,6.03-4.94
			c0.5-2.71-1.41-5.07-4.14-5.13c-2.69-0.05-5.42,2.29-5.92,5.08C61.3,131.5,63.06,133.67,65.82,133.7z"/>
		<path class="st5" d="M37.34,36.83c4.38,0,8.78-0.08,13.13,0.04c1.51,0.04,1.38-0.96,1.75-1.73c0.54-1.12-0.37-1.01-0.95-1.1
			c-6.19-1-12.39-1.98-18.57-2.99c-0.67-0.11-1.09-0.04-1.27,0.8c-0.14,0.67-0.39,1.34-0.66,1.99c-0.35,0.87-1,1.33-1.9,1.2
			c-0.84-0.12-1.09-0.7-0.92-1.53c0.07-0.34,0.16-0.67,0.27-1.01c0.21-0.65,0.85-1.61,0.42-1.89c-0.65-0.43-1.67-0.39-2.55-0.51
			c-0.46-0.07-0.59,0.36-0.72,0.67c-0.64,1.49-1.2,3-1.9,4.48c-0.44,0.93,0.01,0.93,0.68,0.93c4.43-0.01,8.86-0.01,13.29-0.01
			C37.41,36.4,37.37,36.62,37.34,36.83z"/>
		<path class="st5" d="M125.93,26.06c5.89-0.52,11.39-0.99,16.9-1.5c1.63-0.15,2.73-1.16,2.87-2.49c0.13-1.26-0.71-2.18-2.13-2.05
			c-5.75,0.51-11.5,1.07-17.25,1.63c-1.23,0.12-2.08,0.84-2.37,2.07c-0.28,1.18,0.23,1.91,1.23,2.26
			C125.51,26.11,125.92,26.06,125.93,26.06z"/>
		<path class="st4" d="M50.65,19.99c-1.38,3.24-2.73,6.44-4.1,9.64c-0.2,0.46-0.2,0.71,0.33,0.79c1.95,0.28,3.9,0.58,5.83,0.91
			c0.65,0.11,0.81-0.18,1.01-0.75C55.17,26.65,53.92,22.17,50.65,19.99z"/>
		<path class="st4" d="M66.63,40.09c-2,0-3.73,0.02-5.45-0.01c-0.51-0.01-0.81,0.06-0.95,0.67c-1.18,4.98-2.39,9.96-3.6,14.94
			c0.13,0.04,0.27,0.07,0.4,0.11C60.17,50.66,63.31,45.53,66.63,40.09z"/>
		<path class="st4" d="M82.83,76.67c-1.13,1.83-2.08,3.38-3.02,4.92c-0.38,0.61-0.78,1.22-1.1,1.85c-0.27,0.54-1.11,1.13-0.66,1.64
			c0.38,0.43,1.2,0.41,1.9,0.18c0.73-0.24,1.2-0.75,1.37-1.52c0.32-1.39,0.74-2.77,0.99-4.16C82.46,78.74,83.22,77.95,82.83,76.67z"
			/>
		<path class="st5" d="M48.95,74.13c-0.94,1.52-1.9,3.03-2.81,4.57c-0.21,0.36-0.77,0.78-0.46,1.16c0.31,0.37,0.91,0.38,1.45,0.25
			c0.49-0.12,0.75-0.49,0.87-0.97c0.4-1.66,0.81-3.32,1.22-4.98C49.13,74.14,49.04,74.14,48.95,74.13z"/>
		<path class="st5" d="M56.35,37.08c0.41,0,0.75-0.03,1.08,0.01c0.62,0.06,0.87-0.24,1-0.83c0.13-0.58,0.2-1.05-0.52-1.11
			c-0.47-0.04-0.93-0.11-1.39-0.18c-1.11-0.18-1.99,0.53-1.83,1.61C54.81,37.53,55.87,36.82,56.35,37.08z"/>
		<path class="st4" d="M55.8,20.78c1.02-1.77-0.01-1.86-1.34-1.88C54.93,19.56,55.32,20.11,55.8,20.78z"/>
		<path class="st7" d="M12.34,128.82c0.44-2.78,3.13-5.17,5.85-5.2c2.74-0.03,4.72,2.29,4.27,5c-0.46,2.76-3.14,5.05-5.93,5.07
			C13.8,133.72,11.92,131.52,12.34,128.82z M19.54,128.74c0.22-1.11-0.58-2.14-1.69-2.18c-1.18-0.05-2.39,0.97-2.59,2.17
			c-0.19,1.15,0.6,2.08,1.76,2.08C18.17,130.81,19.31,129.87,19.54,128.74z"/>
		<path class="st7" d="M67.71,123.63c2.73,0.06,4.64,2.42,4.14,5.13c-0.5,2.73-3.23,4.96-6.03,4.94c-2.76-0.02-4.52-2.2-4.03-4.98
			C62.29,125.92,65.02,123.57,67.71,123.63z M66.38,130.81c1.22,0.03,2.39-0.96,2.57-2.17c0.17-1.12-0.68-2.1-1.8-2.08
			c-1.16,0.01-2.25,0.95-2.46,2.12C64.48,129.84,65.23,130.78,66.38,130.81z"/>
		<path class="st8" d="M17.02,130.81c1.15,0,2.29-0.94,2.52-2.07c0.22-1.11-0.58-2.14-1.69-2.18c-1.18-0.05-2.39,0.97-2.59,2.17
			C15.07,129.88,15.85,130.81,17.02,130.81z"/>
		<path class="st8" d="M64.69,128.68c-0.21,1.16,0.53,2.1,1.69,2.13c1.22,0.03,2.39-0.96,2.57-2.17c0.17-1.12-0.68-2.1-1.8-2.08
			C66,126.57,64.91,127.51,64.69,128.68z"/>
	</g>
</g>
</svg>
