<?xml version="1.0" encoding="utf-8"?>
<!-- Generator: Adobe Illustrator 23.0.5, SVG Export Plug-In . SVG Version: 6.00 Build 0)  -->
<svg version="1.1" id="Layer_1" xmlns="http://www.w3.org/2000/svg" xmlns:xlink="http://www.w3.org/1999/xlink" x="0px" y="0px"
	 viewBox="0 0 32 32" style="enable-background:new 0 0 32 32;" xml:space="preserve">
<style type="text/css">
	.st0{fill:#050404;}
	.st1{fill:#F2C64B;}
	.st2{fill:#F2C54B;}
	.st3{fill:#F8647C;}
	.st4{fill:#F1C54B;}
	.st5{fill:#F7637C;}
	.st6{fill:#28569B;}
	.st7{fill:#010304;}
	.st8{fill:#4F8BD3;}
</style>
<g>
	<path class="st0" d="M1.38,18.36c-0.65-0.11-1.04-0.59-0.93-1.24c0.42-2.43,0.85-4.87,1.29-7.3c0.1-0.55,0.61-0.96,1.16-0.98
		c0.26-0.01,0.52,0.01,0.79,0.01c0.33-0.01,0.72,0.17,0.97-0.03c0.24-0.19,0.31-0.61,0.44-0.94c0.38-0.91,0.43-0.95,1.33-0.8
		c0.2,0.03,0.29,0,0.38-0.23c0.58-1.6,2.31-2.6,3.84-2.25c0.09,0.02,0.21,0.09,0.28,0.05c0.46-0.22,0.84-0.03,1.24,0.03
		c0.24,0.04,0.32,0,0.4-0.26c0.71-2.2,3.2-3.6,5.21-2.94c1.66,0.54,2.44,2.3,1.82,4.12c-0.08,0.22-0.03,0.27,0.16,0.29
		c0.24,0.02,0.47,0.07,0.7,0.11c0.48,0.08,0.63,0.31,0.52,0.8c-0.17,0.75-0.35,1.49-0.55,2.24c-0.06,0.22-0.01,0.27,0.2,0.28
		c1.27,0.03,2.53,0.06,3.8,0.1c0.15,0,0.24-0.03,0.33-0.18c0.38-0.63,0.76-1.26,1.16-1.88c0.08-0.13,0.08-0.2,0-0.31
		c-0.24-0.33-0.25-0.71-0.01-1.12c0.24-0.41,0.59-0.63,1.04-0.67c1.18-0.11,2.37-0.23,3.55-0.34c0.65-0.06,1.11,0.34,1.07,0.94
		c-0.04,0.62-0.51,1.12-1.18,1.19c-1.19,0.13-2.37,0.24-3.55,0.34c-0.22,0.02-0.32,0.09-0.44,0.28c-2.41,3.94-4.82,7.88-7.23,11.82
		c-0.39,0.63-0.9,1.09-1.6,1.33c-0.3,0.1-0.6,0.11-0.95,0.14c0.21,0.24,0.41,0.45,0.54,0.7c0.47,0.89,0.95,1.77,1.39,2.68
		c0.44,0.92-0.41,2.1-1.52,2.14c-0.21,0.01-0.42,0-0.65,0c0.77,1.27,0.56,2.52-0.54,3.48c-0.98,0.85-2.34,0.95-3.16,0.24
		c-0.52-0.45-0.74-1.05-0.65-1.8c0.09-0.74,0.49-1.36,1.09-1.89c-2.38,0-4.72,0-7.09,0c0.88,1.06,0.49,2.53-0.47,3.4
		c-0.99,0.9-2.42,1.02-3.26,0.26c-0.44-0.4-0.65-0.91-0.63-1.55c0.03-0.82,0.44-1.51,1.13-2.14c-0.37,0-0.69,0.01-1.01,0
		c-0.48-0.01-0.82-0.33-0.85-0.78c-0.04-0.7,0.56-1.27,1.32-1.27c4.49,0,8.99,0,13.48,0c0.1,0,0.21,0,0.36,0
		c-0.28-0.53-0.52-1.01-0.78-1.48c-0.29-0.51-0.76-0.83-1.37-0.94c-1.33-0.24-2.67-0.45-4-0.68c-1.81-0.3-3.61-0.61-5.42-0.92
		c-0.62-0.11-0.9-0.63-0.67-1.25c0.04-0.12,0.11-0.23,0.18-0.36C3.13,18.66,2.26,18.51,1.38,18.36z M16.92,25.89
		c0.37,0,0.7-0.07,0.94-0.42c0.24-0.35,0.19-0.65,0.02-0.96c-0.35-0.64-0.69-1.28-1-1.94c-0.57-1.24-1.58-1.88-2.99-2.1
		c-2.95-0.45-5.88-0.98-8.82-1.48c-0.36-0.06-0.57,0.03-0.67,0.3c-0.1,0.29,0.03,0.47,0.39,0.52c3.08,0.52,6.16,1.04,9.24,1.57
		c0.9,0.15,1.54,0.63,1.93,1.4c0.29,0.55,0.57,1.11,0.85,1.67c0.07,0.13,0.15,0.26,0.01,0.44c-0.13,0.17-0.28,0.14-0.43,0.14
		c-4.72,0-9.43,0-14.15,0c-0.12,0-0.25,0-0.36,0.03c-0.22,0.06-0.36,0.22-0.37,0.44c-0.01,0.21,0.09,0.35,0.31,0.37
		c0.1,0.01,0.2,0.01,0.3,0.01c2.46,0,4.93,0,7.39,0C11.99,25.88,14.46,25.88,16.92,25.89z M19.52,9.31c0.19,0,0.28-0.05,0.32-0.24
		c0.17-0.73,0.34-1.45,0.52-2.18c0.05-0.2-0.01-0.27-0.19-0.28c-0.13-0.01-0.25-0.04-0.38-0.06c-0.48-0.07-0.48-0.06-0.65,0.44
		c-0.04,0.11-0.08,0.22-0.11,0.33c-0.06,0.21-0.19,0.36-0.41,0.31c-0.21-0.04-0.25-0.2-0.17-0.41c0.08-0.21,0.12-0.42,0.21-0.63
		c0.07-0.17,0.03-0.22-0.13-0.24c-0.96-0.15-1.92-0.31-2.88-0.46c-0.84-0.14-1.69-0.26-2.53-0.41c-0.23-0.04-0.33-0.01-0.41,0.26
		c-0.16,0.5-0.38,0.99-0.33,1.51c0.01,0.16-0.05,0.34-0.11,0.51c-0.07,0.2-0.05,0.31,0.18,0.31c0.13,0,0.25,0.04,0.38,0.06
		c0.42,0.07,0.57,0.26,0.45,0.69c-0.07,0.28,0.01,0.34,0.27,0.33c1-0.01,2-0.01,3-0.01c-0.01,0.05-0.02,0.1-0.03,0.16
		C17.53,9.3,18.53,9.29,19.52,9.31z M17.24,20.33c0.56-0.12,1.02-0.42,1.32-0.93c1.87-3.05,3.72-6.11,5.59-9.16
		c0.1-0.16,0.11-0.23-0.09-0.23c-0.52,0-1.05-0.01-1.57-0.03c-0.13,0-0.2,0.04-0.28,0.16c-1.09,1.79-2.2,3.57-3.26,5.37
		c-0.28,0.47-0.28,1.02-0.42,1.53c-0.16,0.6-0.3,1.21-0.44,1.81c-0.16,0.67-0.68,1.04-1.33,0.96c-0.45-0.05-0.45-0.05-0.68,0.42
		C16.47,20.29,16.82,20.42,17.24,20.33z M16.96,1.94c-1.67-0.14-3.24,0.91-3.83,2.53c-0.11,0.3-0.07,0.39,0.22,0.43
		c1.78,0.27,3.55,0.56,5.32,0.85c0.2,0.03,0.3-0.01,0.35-0.23c0.04-0.18,0.09-0.36,0.12-0.47C19.43,3.43,18.44,2.07,16.96,1.94z
		 M17.46,9.9c-0.22,0.15-0.33,0.47-0.48,0.72c-1.54,2.52-3.08,5.04-4.63,7.55c-0.15,0.24-0.1,0.28,0.12,0.31
		c0.35,0.04,0.7,0.1,1.04,0.17c0.23,0.05,0.37,0.01,0.52-0.25c1.58-2.61,3.18-5.21,4.76-7.81c0.13-0.22,0.42-0.48,0.34-0.65
		c-0.07-0.17-0.44-0.04-0.67-0.06c-0.06-0.01-0.12,0-0.18,0C18.01,9.9,17.7,9.74,17.46,9.9z M10.34,9.64
		c-0.15,0-0.22,0.06-0.29,0.19c-1.48,2.43-2.96,4.86-4.45,7.29c-0.13,0.22-0.1,0.27,0.12,0.29c0.37,0.04,0.74,0.1,1.1,0.18
		c0.21,0.05,0.32-0.02,0.44-0.22c1.44-2.37,2.89-4.73,4.33-7.09c0.11-0.18,0.22-0.36,0.38-0.62C11.38,9.64,10.86,9.65,10.34,9.64z
		 M4.68,17.26c0.2,0.04,0.23-0.12,0.29-0.23c1.29-2.1,2.58-4.2,3.87-6.31c0.18-0.3,0.35-0.59,0.54-0.88c0.11-0.17,0.06-0.2-0.1-0.21
		C8.86,9.62,8.44,9.62,8.02,9.58C7.8,9.56,7.68,9.64,7.55,9.85C6.25,12,4.93,14.15,3.61,16.3C3.47,16.53,3.34,16.76,3.19,17
		C3.7,17.09,4.2,17.16,4.68,17.26z M15.03,9.82c-0.22,0.15-0.34,0.49-0.5,0.75c-0.83,1.36-1.66,2.72-2.5,4.07
		c-0.2,0.32-0.3,0.65-0.39,0.99c-0.2,0.84-0.42,1.67-0.63,2.5c-0.01,0.04-0.03,0.07,0,0.1c0.16,0.15,0.58,0.06,0.72-0.17
		c1.63-2.66,3.26-5.32,4.89-7.97c0.13-0.21,0.15-0.31-0.12-0.28c-0.21,0.02-0.42,0-0.64,0C15.59,9.81,15.27,9.66,15.03,9.82z
		 M18.26,12.57c-1.22,1.99-2.44,3.99-3.67,5.97c-0.15,0.25-0.08,0.28,0.13,0.31c0.38,0.05,0.76,0.11,1.13,0.18
		c0.17,0.03,0.27,0,0.38-0.18c0.66-1.09,1.33-2.18,2-3.27c0.15-0.25,0.16-0.52,0.23-0.78c0.34-1.36,0.66-2.72,0.99-4.07
		c-0.02,0-0.03-0.01-0.05-0.01C19.01,11.34,18.63,11.95,18.26,12.57z M5.31,9.57c-0.22,0.15-0.32,0.48-0.48,0.72
		c-0.55,0.81-0.84,1.7-1.22,2.57c-0.51,1.18-1.01,2.36-1.51,3.54c-0.07,0.17-0.2,0.38,0.07,0.43c0.21,0.04,0.4,0.13,0.61-0.2
		c1.36-2.26,2.74-4.51,4.12-6.76c0.15-0.24,0.17-0.34-0.13-0.32c-0.21,0.01-0.42,0-0.64,0C5.85,9.54,5.54,9.4,5.31,9.57z
		 M8.61,16.21c-0.27,0.44-0.54,0.89-0.81,1.33c-0.1,0.16-0.08,0.21,0.09,0.23c0.43,0.05,0.86,0.12,1.28,0.2
		c0.14,0.03,0.2-0.03,0.27-0.15c0.56-0.93,1.13-1.85,1.69-2.77c0.1-0.15,0.12-0.32,0.16-0.47c0.34-1.38,0.67-2.76,1-4.14
		c0.02-0.07,0.02-0.13,0.04-0.2c-0.02,0-0.04,0-0.05,0C11.05,12.22,9.83,14.21,8.61,16.21z M5.86,28.29
		c0.17-0.98-0.48-1.79-1.46-1.8c-0.99-0.01-1.94,0.8-2.12,1.81c-0.17,1,0.47,1.77,1.48,1.77C4.76,30.07,5.69,29.28,5.86,28.29z
		 M14.12,30.07c0.99-0.01,1.94-0.82,2.1-1.79c0.16-0.98-0.51-1.79-1.49-1.78c-0.98,0-1.92,0.81-2.09,1.81
		C12.47,29.3,13.11,30.07,14.12,30.07z M3.23,11.82c0.43-0.68,0.79-1.38,1.08-2.11c0.07-0.18,0.04-0.22-0.13-0.23
		c-0.45,0-0.9-0.02-1.35-0.03c-0.23,0-0.43,0.11-0.48,0.34c-0.29,1.59-0.57,3.17-0.85,4.76c0.02,0,0.03,0.01,0.05,0.01
		C2.11,13.65,2.66,12.73,3.23,11.82z M11,9.05c0.32,0.01,0.29-0.2,0.37-0.36c0.11-0.23-0.08-0.21-0.2-0.23
		c-1.3-0.21-2.59-0.42-3.89-0.63C7.14,7.81,7.05,7.83,7.01,8C6.98,8.14,6.93,8.28,6.87,8.42C6.8,8.6,6.66,8.7,6.48,8.67
		C6.3,8.65,6.25,8.53,6.29,8.35C6.3,8.28,6.32,8.21,6.34,8.14C6.39,8,6.52,7.8,6.43,7.74C6.3,7.65,6.08,7.66,5.9,7.64
		C5.8,7.62,5.78,7.71,5.75,7.78C5.61,8.09,5.5,8.41,5.35,8.71c-0.09,0.19,0,0.2,0.14,0.19c0.93,0,1.86,0,2.78,0
		C8.27,8.95,8.26,9,8.25,9.05C9.17,9.05,10.09,9.03,11,9.05z M7.34,7.02c-0.05,0.14-0.05,0.2,0.1,0.22c0.66,0.1,1.32,0.21,1.97,0.32
		c0.15,0.03,0.17-0.08,0.21-0.18c0.27-0.64,0.53-1.27,0.82-1.9c0.09-0.21,0.06-0.29-0.14-0.31c-0.13-0.01-0.26-0.02-0.3-0.02
		C8.8,5.15,7.75,5.92,7.34,7.02z M30.35,6.48c0.34-0.03,0.57-0.24,0.6-0.52c0.03-0.26-0.15-0.46-0.45-0.43
		c-1.2,0.11-2.41,0.22-3.61,0.34c-0.26,0.03-0.43,0.18-0.5,0.43c-0.06,0.25,0.05,0.4,0.26,0.47c0.07,0.02,0.16,0.01,0.16,0.01
		C28.04,6.68,29.19,6.58,30.35,6.48z M20.44,9.93c-0.13,0-0.2,0.01-0.24,0.17c-0.28,1.18-0.57,2.37-0.81,3.57
		c0.75-1.22,1.5-2.45,2.29-3.73C21.22,9.93,20.83,9.93,20.44,9.93z M10.18,7.54c-0.04,0.1-0.04,0.15,0.07,0.16
		c0.41,0.06,0.82,0.12,1.22,0.19c0.14,0.02,0.17-0.04,0.21-0.16c0.3-0.82,0.04-1.76-0.65-2.22C10.75,6.2,10.47,6.87,10.18,7.54z
		 M13.25,9.72c-0.11,0-0.17,0.01-0.2,0.14c-0.25,1.04-0.5,2.09-0.75,3.13c0.03,0.01,0.06,0.02,0.08,0.02
		c0.66-1.08,1.31-2.15,2.01-3.29C13.97,9.73,13.61,9.73,13.25,9.72z M1.03,17.24c0.01,0.36,0.53,0.68,0.91,0.58
		c0.15-0.04,0.19-0.18,0.23-0.29c0.04-0.12-0.1-0.07-0.17-0.09c-0.59-0.12-0.77-0.51-0.52-1.12c0.2-0.47,0.4-0.94,0.6-1.41
		c-0.02-0.01-0.05-0.01-0.07-0.02C1.5,15.63,1,16.37,1.03,17.24z M14.23,19.39c-0.26-0.04-0.29,0.21-0.36,0.34
		c-0.09,0.18,0.11,0.13,0.19,0.14c0.31,0.06,0.63,0.11,0.95,0.17c0.45,0.08,0.45,0.08,0.69-0.41
		C15.21,19.55,14.72,19.47,14.23,19.39z M13.09,19.7c0.26,0.03,0.22-0.27,0.44-0.42c-0.58-0.09-1.09-0.2-1.61-0.25
		c-0.22-0.02-0.2,0.26-0.36,0.42C12.09,19.54,12.58,19.64,13.09,19.7z M11.18,19.01c0.08-0.17-0.11-0.1-0.18-0.12
		c-0.41-0.08-0.83-0.14-1.24-0.22c-0.26-0.05-0.29,0.19-0.36,0.32c-0.08,0.17,0.11,0.11,0.18,0.12c0.42,0.08,0.85,0.15,1.29,0.23
		C11.08,19.35,11.11,19.13,11.18,19.01z M7.5,18.31c-0.24-0.05-0.28,0.16-0.34,0.29c-0.1,0.2,0.11,0.12,0.19,0.14
		c0.33,0.07,0.69,0.09,1,0.18c0.34,0.1,0.5-0.02,0.61-0.37C8.48,18.48,7.99,18.4,7.5,18.31z M5.26,17.96
		c-0.23-0.05-0.27,0.13-0.33,0.26c-0.1,0.2,0.09,0.14,0.18,0.15c0.34,0.07,0.7,0.1,1.03,0.19c0.3,0.08,0.48,0,0.57-0.35
		C6.22,18.12,5.73,18.06,5.26,17.96z M3.02,17.58c-0.28-0.05-0.27,0.19-0.41,0.35c0.52,0.09,1.02,0.18,1.52,0.25
		c0.25,0.04,0.2-0.23,0.41-0.35C3.97,17.75,3.49,17.67,3.02,17.58z M17.15,18.42c-0.08,0.13-0.16,0.26-0.23,0.39
		c-0.06,0.11-0.23,0.24-0.14,0.34c0.08,0.09,0.25,0.09,0.4,0.04c0.15-0.05,0.25-0.16,0.29-0.32c0.07-0.29,0.15-0.58,0.21-0.87
		c0.03-0.18,0.19-0.34,0.11-0.61C17.54,17.77,17.34,18.1,17.15,18.42z M10.09,17.81c-0.04,0.08-0.16,0.16-0.1,0.24
		c0.07,0.08,0.19,0.08,0.3,0.05c0.1-0.02,0.16-0.1,0.18-0.2c0.08-0.35,0.17-0.7,0.26-1.04c-0.02,0-0.04,0-0.06,0
		C10.49,17.18,10.28,17.49,10.09,17.81z M12.46,9.1c0.13,0.01,0.18-0.05,0.21-0.17c0.03-0.12,0.04-0.22-0.11-0.23
		c-0.1-0.01-0.19-0.02-0.29-0.04c-0.23-0.04-0.42,0.11-0.38,0.34c0.03,0.2,0.25,0.05,0.35,0.11C12.32,9.1,12.39,9.09,12.46,9.1z
		 M11.84,5.29c0.1,0.14,0.18,0.25,0.28,0.39C12.33,5.31,12.12,5.29,11.84,5.29z"/>
	<path class="st1" d="M16.53,9.3c1,0,2-0.01,3,0.01c0.19,0,0.28-0.05,0.32-0.24c0.17-0.73,0.34-1.45,0.52-2.18
		c0.05-0.2-0.01-0.27-0.19-0.28c-0.13-0.01-0.25-0.04-0.38-0.06c-0.48-0.07-0.48-0.06-0.65,0.44c-0.04,0.11-0.08,0.22-0.11,0.33
		c-0.06,0.21-0.19,0.36-0.41,0.31c-0.21-0.04-0.25-0.2-0.17-0.41c0.08-0.21,0.12-0.42,0.21-0.63c0.07-0.17,0.03-0.22-0.13-0.24
		c-0.96-0.15-1.92-0.31-2.88-0.46c-0.84-0.14-1.69-0.26-2.53-0.41c-0.23-0.04-0.33-0.01-0.41,0.26c-0.16,0.5-0.38,0.99-0.33,1.51
		c0.01,0.16-0.05,0.34-0.11,0.51c-0.07,0.2-0.05,0.31,0.18,0.31c0.13,0,0.25,0.04,0.38,0.06c0.42,0.07,0.57,0.26,0.45,0.69
		c-0.07,0.28,0.01,0.34,0.27,0.33c1-0.01,2-0.01,3-0.01C16.55,9.2,16.54,9.25,16.53,9.3z"/>
	<path class="st2" d="M18.29,9.88C18.01,9.9,17.7,9.74,17.46,9.9c-0.22,0.15-0.33,0.47-0.48,0.72c-1.54,2.52-3.08,5.04-4.63,7.55
		c-0.15,0.24-0.1,0.28,0.12,0.31c0.35,0.04,0.7,0.1,1.04,0.17c0.23,0.05,0.37,0.01,0.52-0.25c1.58-2.61,3.18-5.21,4.76-7.81
		c0.13-0.22,0.42-0.48,0.34-0.65c-0.07-0.17-0.44-0.04-0.67-0.06C18.41,9.87,18.35,9.88,18.29,9.88z"/>
	<path class="st3" d="M11.97,9.64c-0.58,0-1.11,0.01-1.63,0c-0.15,0-0.22,0.06-0.29,0.19c-1.48,2.43-2.96,4.86-4.45,7.29
		c-0.13,0.22-0.1,0.27,0.12,0.29c0.37,0.04,0.74,0.1,1.1,0.18c0.21,0.05,0.32-0.02,0.44-0.22c1.44-2.37,2.89-4.73,4.33-7.09
		C11.7,10.08,11.81,9.9,11.97,9.64z"/>
	<path class="st3" d="M3.19,17c0.52,0.09,1.01,0.16,1.5,0.25c0.2,0.04,0.23-0.12,0.29-0.23c1.29-2.1,2.58-4.2,3.87-6.31
		c0.18-0.3,0.35-0.59,0.54-0.88c0.11-0.17,0.06-0.2-0.1-0.21C8.86,9.62,8.44,9.62,8.02,9.58C7.8,9.56,7.68,9.64,7.55,9.85
		C6.25,12,4.93,14.15,3.61,16.3C3.47,16.53,3.34,16.76,3.19,17z"/>
	<path class="st2" d="M15.88,9.82c-0.29,0-0.61-0.16-0.85,0.01c-0.22,0.15-0.34,0.49-0.5,0.75c-0.83,1.36-1.66,2.72-2.5,4.07
		c-0.2,0.32-0.3,0.65-0.39,0.99c-0.2,0.84-0.42,1.67-0.63,2.5c-0.01,0.04-0.03,0.07,0,0.1c0.16,0.15,0.58,0.06,0.72-0.17
		c1.63-2.66,3.26-5.32,4.89-7.97c0.13-0.21,0.15-0.31-0.12-0.28C16.3,9.83,16.09,9.82,15.88,9.82z"/>
	<path class="st4" d="M19.39,10.72c-0.38,0.62-0.75,1.23-1.13,1.85c-1.22,1.99-2.44,3.99-3.67,5.97c-0.15,0.25-0.08,0.28,0.13,0.31
		c0.38,0.05,0.76,0.11,1.13,0.18c0.17,0.03,0.27,0,0.38-0.18c0.66-1.09,1.33-2.18,2-3.27c0.15-0.25,0.16-0.52,0.23-0.78
		c0.34-1.36,0.66-2.72,0.99-4.07C19.42,10.73,19.4,10.73,19.39,10.72z"/>
	<path class="st5" d="M6.13,9.55c-0.28,0-0.59-0.14-0.83,0.02c-0.22,0.15-0.32,0.48-0.48,0.72c-0.55,0.81-0.84,1.7-1.22,2.57
		c-0.51,1.18-1.01,2.36-1.51,3.54c-0.07,0.17-0.2,0.38,0.07,0.43c0.21,0.04,0.4,0.13,0.61-0.2c1.36-2.26,2.74-4.51,4.12-6.76
		c0.15-0.24,0.17-0.34-0.13-0.32C6.55,9.56,6.34,9.55,6.13,9.55z"/>
	<path class="st5" d="M12.27,10.22c-1.22,1.99-2.44,3.99-3.66,5.98c-0.27,0.44-0.54,0.89-0.81,1.33c-0.1,0.16-0.08,0.21,0.09,0.23
		c0.43,0.05,0.86,0.12,1.28,0.2c0.14,0.03,0.2-0.03,0.27-0.15c0.56-0.93,1.13-1.85,1.69-2.77c0.1-0.15,0.12-0.32,0.16-0.47
		c0.34-1.38,0.67-2.76,1-4.14c0.02-0.07,0.02-0.13,0.04-0.2C12.3,10.23,12.29,10.23,12.27,10.22z"/>
	<path class="st6" d="M2.29,28.3c0.17-1,1.13-1.82,2.12-1.81c0.98,0.01,1.63,0.82,1.46,1.8c-0.17,0.99-1.11,1.77-2.1,1.78
		C2.75,30.07,2.11,29.3,2.29,28.3z M5.14,28.27c0.09-0.57-0.32-1.05-0.89-1.05c-0.57,0.01-1.13,0.51-1.23,1.09
		c-0.09,0.57,0.31,1.02,0.88,1.02C4.48,29.33,5.04,28.85,5.14,28.27z"/>
	<path class="st6" d="M14.73,26.49c0.98,0,1.65,0.8,1.49,1.78c-0.16,0.98-1.11,1.79-2.1,1.79c-1.01,0.01-1.66-0.76-1.48-1.77
		C12.81,27.3,13.75,26.49,14.73,26.49z M14.22,29.33c0.59,0,1.16-0.46,1.26-1.03c0.1-0.57-0.3-1.06-0.87-1.07
		c-0.56-0.01-1.14,0.48-1.24,1.07C13.27,28.87,13.64,29.33,14.22,29.33z"/>
	<path class="st5" d="M8.25,9.05c0.92,0,1.84-0.02,2.75,0.01c0.32,0.01,0.29-0.2,0.37-0.36c0.11-0.23-0.08-0.21-0.2-0.23
		c-1.3-0.21-2.59-0.42-3.89-0.63C7.14,7.81,7.05,7.83,7.01,8C6.98,8.14,6.93,8.28,6.87,8.42C6.8,8.6,6.66,8.7,6.48,8.67
		C6.3,8.65,6.25,8.53,6.29,8.35C6.3,8.28,6.32,8.21,6.34,8.14C6.39,8,6.52,7.8,6.43,7.74C6.3,7.65,6.08,7.66,5.9,7.64
		C5.8,7.62,5.78,7.71,5.75,7.78C5.61,8.09,5.5,8.41,5.35,8.71c-0.09,0.19,0,0.2,0.14,0.19c0.93,0,1.86,0,2.78,0
		C8.27,8.95,8.26,9,8.25,9.05z"/>
	<path class="st5" d="M26.81,6.79c1.23-0.11,2.39-0.21,3.54-0.31c0.34-0.03,0.57-0.24,0.6-0.52c0.03-0.26-0.15-0.46-0.45-0.43
		c-1.2,0.11-2.41,0.22-3.61,0.34c-0.26,0.03-0.43,0.18-0.5,0.43c-0.06,0.25,0.05,0.4,0.26,0.47C26.72,6.8,26.81,6.79,26.81,6.79z"/>
	<path class="st4" d="M11.04,5.52c-0.29,0.68-0.57,1.35-0.86,2.02c-0.04,0.1-0.04,0.15,0.07,0.16c0.41,0.06,0.82,0.12,1.22,0.19
		c0.14,0.02,0.17-0.04,0.21-0.16C11.99,6.91,11.73,5.97,11.04,5.52z"/>
	<path class="st4" d="M14.39,9.73c-0.42,0-0.78,0-1.14,0c-0.11,0-0.17,0.01-0.2,0.14c-0.25,1.04-0.5,2.09-0.75,3.13
		c0.03,0.01,0.06,0.02,0.08,0.02C13.03,11.94,13.69,10.87,14.39,9.73z"/>
	<path class="st4" d="M17.78,17.39c-0.24,0.38-0.44,0.71-0.63,1.03c-0.08,0.13-0.16,0.26-0.23,0.39c-0.06,0.11-0.23,0.24-0.14,0.34
		c0.08,0.09,0.25,0.09,0.4,0.04c0.15-0.05,0.25-0.16,0.29-0.32c0.07-0.29,0.15-0.58,0.21-0.87C17.7,17.82,17.86,17.66,17.78,17.39z"
		/>
	<path class="st5" d="M10.68,16.86c-0.2,0.32-0.4,0.63-0.59,0.96c-0.04,0.08-0.16,0.16-0.1,0.24c0.07,0.08,0.19,0.08,0.3,0.05
		c0.1-0.02,0.16-0.1,0.18-0.2c0.08-0.35,0.17-0.7,0.26-1.04C10.72,16.86,10.7,16.86,10.68,16.86z"/>
	<path class="st5" d="M12.23,9.1c0.09,0,0.16-0.01,0.23,0c0.13,0.01,0.18-0.05,0.21-0.17c0.03-0.12,0.04-0.22-0.11-0.23
		c-0.1-0.01-0.19-0.02-0.29-0.04c-0.23-0.04-0.42,0.11-0.38,0.34C11.91,9.19,12.13,9.04,12.23,9.1z"/>
	<path class="st4" d="M12.12,5.68c0.21-0.37,0-0.39-0.28-0.39C11.94,5.43,12.02,5.54,12.12,5.68z"/>
	<path class="st7" d="M3.01,28.31c0.09-0.58,0.66-1.08,1.23-1.09c0.57-0.01,0.99,0.48,0.89,1.05c-0.1,0.58-0.66,1.06-1.24,1.06
		C3.32,29.34,2.93,28.88,3.01,28.31z M4.52,28.3c0.05-0.23-0.12-0.45-0.35-0.46c-0.25-0.01-0.5,0.2-0.54,0.46
		C3.59,28.53,3.75,28.73,4,28.73C4.24,28.73,4.48,28.53,4.52,28.3z"/>
	<path class="st7" d="M14.61,27.23c0.57,0.01,0.97,0.51,0.87,1.07c-0.11,0.57-0.68,1.04-1.26,1.03c-0.58,0-0.95-0.46-0.84-1.04
		C13.48,27.71,14.05,27.21,14.61,27.23z M14.33,28.73c0.26,0.01,0.5-0.2,0.54-0.45c0.04-0.23-0.14-0.44-0.38-0.44
		c-0.24,0-0.47,0.2-0.52,0.44C13.94,28.53,14.09,28.72,14.33,28.73z"/>
	<path class="st8" d="M4,28.73c0.24,0,0.48-0.2,0.53-0.43c0.05-0.23-0.12-0.45-0.35-0.46c-0.25-0.01-0.5,0.2-0.54,0.46
		C3.59,28.53,3.75,28.73,4,28.73z"/>
	<path class="st8" d="M13.98,28.28c-0.04,0.24,0.11,0.44,0.35,0.45c0.26,0.01,0.5-0.2,0.54-0.45c0.04-0.23-0.14-0.44-0.38-0.44
		C14.25,27.84,14.03,28.04,13.98,28.28z"/>
</g>
</svg>
