<svg id="Layer_1" data-name="Layer 1" xmlns="http://www.w3.org/2000/svg" viewBox="0 0 334.32 287.44"><defs><style>.cls-1{fill:#616478;}.cls-2{fill:#f8647c;}.cls-3{fill:#f2c64b;}.cls-4{fill:#b0b5c8;}.cls-5{fill:#a9afc4;}.cls-6{fill:#f3f3f4;}.cls-7{fill:#f3f3f2;}.cls-8{fill:#fdfdfd;}.cls-9{fill:#fcfcfc;}.cls-10{fill:#c5c9d5;}.cls-11{fill:#8e96af;}.cls-12{fill:#dcdfe2;}.cls-13{fill:#d2d5de;}</style></defs><title>empty-cart</title><path class="cls-1" d="M66.11,282.73c-5.43-9.15-5.25-16.11.14-21.9A15.08,15.08,0,0,1,75.33,256c1.84-.25,2.49-.85,2.47-2.78-.09-9.87.18-19.75-.13-29.61-.17-5.24-2.35-10.18-3.71-15.23Q58.8,152,43.53,95.67a11.7,11.7,0,0,0-3.05-5.43q-6.94-7.09-13.73-14.35a5.57,5.57,0,0,0-4.58-2c-4.5.11-9,.1-13.5,0C3.48,73.86-.08,70.57,0,66.09s3.64-7.62,8.87-7.63c21.37,0,42.74,0,64.11,0,3.93,0,6.75,1.58,8.19,5.28A10.22,10.22,0,0,0,83.55,67c6.08,6.47,12.23,12.87,18.18,19.44a9.4,9.4,0,0,0,6.4,3.27q25.71,2.68,51.4,5.47,37.07,4,74.12,8c16.76,1.8,33.51,3.77,50.3,5.27,3.86.35,4,1.88,3.72,4.89-1.29,12.68-2.32,25.38-3.67,38-.36,3.45.16,4.6,4.08,4.56,24.23-.25,44.68,18.86,46.15,42.74,1.52,24.77-16.22,46.65-40.61,49.24-18.57,2-33.53-5-44.12-20.51a6.57,6.57,0,0,0-6.3-3.29q-56,.12-112.1,0c-3.13,0-4,.77-3.88,3.89.24,8.37.12,16.74,0,25.12,0,1.82.31,2.84,2.37,3.46a14.6,14.6,0,0,1,10.29,10.49c.55,2,1.56,2.18,3.21,2.17q24.56,0,49.11,0c1.95,0,2.74-.61,3.38-2.51a15.62,15.62,0,0,1,29.84,0c.64,1.89,1.41,2.69,3.38,2.5a23.23,23.23,0,0,1,4.49,0c4.46.47,7.48-.09,9.52-5.34,2.71-7,11.28-9.72,18.43-7.33a16,16,0,0,1,10.67,17,15.54,15.54,0,0,1-15.09,13.59c-16.75.14-33.49.05-50.24.05q-96.72,0-193.45,0c-1.34,0-3.32.92-3.95-.94-.75-2.24-.15-3.63,2.85-3.6,16.5.13,33,.06,49.49.06ZM267,160.58c1.5-.58,3-1.18,4.5-1.74,8.06-3,8.06-3,8.14-11.87,1-10.18,1.87-20.37,3.06-30.53.35-3-.92-3.59-3.39-3.85q-32.56-3.42-65.14-6.94-33.31-3.59-66.62-7.21c-12.78-1.37-25.57-2.66-38.35-4.06-2.29-.25-2.92.05-2.44,2.71,2,11.51,3.72,23.09,5.62,34.62,4.68,28.47,9.45,56.92,14.07,85.4.35,2.17,1.19,2.6,3.12,2.59q52.46-.1,104.91-.12c2.75,0,5.5,0,8.25.13,1.93.09,2.4-.47,1.67-2.35-2-5.07-2.43-10.37-2.58-15.79-.17-6.12,2-11.78,2.69-17.72,4.08-5.62,7.41-11.81,12.52-16.66ZM47.91,93.75c.3,1.37.49,2.46.78,3.52Q55,120.75,61.35,144.2q9.75,36.11,19.49,72.21c.43,1.57.37,3.36,3,3.33,12-.14,24-.09,36,0,1.82,0,2.28-.41,2-2.36-2.54-15-4.9-29.94-7.37-44.91-4.17-25.27-8.43-50.52-12.52-75.81-.36-2.23-1-3-3.24-2.91-6,.11-12,0-18,0Zm198.48,108c-.12,23,18.26,41.8,41,41.94,23.32.15,42.21-18.14,42.39-41a41.7,41.7,0,1,0-83.4-.91ZM102.6,224.19c-5.74,0-11.48.11-17.22-.05-2.38-.07-3.21.53-3.17,3.06.16,8.74.14,17.48,0,26.21,0,2.21.65,3.34,2.68,4.19,2.82,1.19,5.57,3.2,6.3,6.08,1.47,5.8,5.31,6.11,10,5.59a27.68,27.68,0,0,1,5.61,0c1.88.17,2.61-.66,3.11-2.33a14.8,14.8,0,0,1,10.37-10.39c1.82-.56,2.33-1.38,2.32-3.14-.06-8.86-.09-17.72,0-26.58,0-2.2-.77-2.73-2.82-2.69C114.09,224.26,108.34,224.19,102.6,224.19ZM31.83,74.68c4,4.12,7.87,8.06,11.61,12.18a6.67,6.67,0,0,0,5.5,2.38c15.12-.11,30.24,0,45.36-.08,1,0,2.17.32,3.39-.47-4.9-5.22-9.75-10.23-14.4-15.42-1.79-2-3.06-3-5.43-.63C76.35,74.19,73.94,74,71.79,74q-18,0-36,0C34.63,74,33.36,73.6,31.83,74.68Zm104.7,207.84h62.56c-1.79-2.42-3.22-4.6-3.77-7.19-.36-1.68-1.61-1.59-2.9-1.59q-24.73,0-49.47,0c-1.1,0-2.42-.24-2.71,1.29C139.74,277.8,138.12,280,136.53,282.52Zm-23.1,0a21.24,21.24,0,0,1-3.9-7.55c-.32-1.38-1.33-1.25-2.32-1.25-3.87,0-7.75,0-11.62,0-1.2,0-2.32.06-2.57,1.52-.46,2.73-2.25,4.85-3.54,7.29Zm108.66,0H244c-1.12-9.17-7.47-9.7-14.64-8.79a5.24,5.24,0,0,1-1.12,0,1.94,1.94,0,0,0-2.44,1.65C225.26,278,223.75,280.1,222.09,282.54Zm-97.37-15.75c-3,.26-4.7,2-4.66,4.84s1.89,4.58,4.77,4.74a4.7,4.7,0,0,0,4.76-5.09C129.36,268.3,127.57,266.92,124.72,266.79Zm131.73,0c-2.88.17-4.62,1.59-4.81,4.55a4.52,4.52,0,0,0,4.74,5c2.82-.2,4.64-1.73,4.63-4.74S259.39,267.08,256.45,266.79ZM82.17,273.6c-4.56.93-4.64-1.29-4.45-3.9.06-.86.61-2.18-.6-2.61s-2.4.49-3.12,1.5c-1.65,2.36-1.56,4.77.71,6.61S79.41,276.87,82.17,273.6Zm124.27.26c3.47,3.52,5.66,3.4,7.62,0Zm7.93-4.73c-3.14-3.15-5.23-3.07-7.27,0Z"/><path class="cls-2" d="M205.61,20.89c-3.66-.22-7.17-.16-10.6-.68A12.82,12.82,0,0,1,184.47,7.87c-.05-2,.64-2.62,2.58-2.56,6.28.18,12.89-1.08,17.73,4.61.7.83,1.25.42,1.8-.2,5-5.68,11.82-4.17,18.19-4.4,1.56-.05,1.8.78,1.86,2.09a12.72,12.72,0,0,1-10.4,12.79C212.68,20.75,209,20.68,205.61,20.89Zm-6.17-4.68c1-.35,2.75.78,3.19-.77.32-1.13-.88-2.25-1.79-3.12C198,9.63,194.5,9.71,191,9.87c-1.93.09-1.08,1.27-.63,2.06C192.35,15.43,195.74,16.07,199.44,16.21Zm22.12-6.15c-7.9-.78-11.19.68-12.72,5.49C216.48,16.63,219.41,15.43,221.56,10.06Z"/><path class="cls-2" d="M247.54,34.64a20.54,20.54,0,0,1-3.46-.71c-6.32-2.18-6.72-4.14-2.22-8.83,3.62-3.78,7.31-7.23,13-6.94,1.64.09,1.38-1.08,1.35-2-.18-7.62,6.1-11,10.35-15.67,1.09-1.2,1.75.19,2.37.81a12.37,12.37,0,0,1,.83,17C265.6,23,261,27.38,256.37,31.77,254.24,33.81,251.45,34.65,247.54,34.64ZM248,30c4.53.32,6.71-2.6,9.11-5.08,1.25-1.28.11-1.59-.94-1.89-3.9-1.12-6.73.69-9.22,3.38-.73.8-2.18,1.48-1.79,2.63C245.63,30.42,247.28,29.86,248,30Zm12.79-14.11c.54,1-.81,3.65,1.83,3.24,3.35-.54,6.56-7.6,5.32-10.88-.28-.72-.51-2.12-1.66-1.11C263.65,9.4,261,11.72,260.77,15.87Z"/><path class="cls-2" d="M31.38,234.42a9.43,9.43,0,0,1,9.34,9.29,9.55,9.55,0,0,1-9.61,9.44A9.51,9.51,0,0,1,22,243.62,9.36,9.36,0,0,1,31.38,234.42ZM31.17,239c-2.86.35-4.54,1.9-4.48,4.86s1.88,4.58,4.79,4.52,4.59-1.85,4.51-4.79S34.14,239.19,31.17,239Z"/><path class="cls-2" d="M62,210.73a6.85,6.85,0,0,1-7,6.75,6.79,6.79,0,0,1,.07-13.58A6.88,6.88,0,0,1,62,210.73Zm-4.54,0c-.18-1.36-.86-2.27-2.32-2.3a2,2,0,0,0-2.19,2,2.07,2.07,0,0,0,2,2.5C56.46,213,57.22,212.15,57.48,210.75Z"/><path class="cls-3" d="M87.59,51.84a32.13,32.13,0,0,1-2.49-2.39c-.86-1,.23-1.55.77-2.11C88,45.11,90.3,43,92.44,40.71c1.08-1.15,1.89-1.25,3-.06s1.66,2,.21,3.33c-2.28,2.11-4.41,4.38-6.62,6.57C88.66,51,88.18,51.33,87.59,51.84Z"/><path class="cls-3" d="M100.07,63c-1.25,0-2.49,0-3.74,0-1.54,0-2.9.21-2.89-2.17,0-2.17,1-2.44,2.71-2.38,2.74.1,5.5.1,8.24,0,1.76-.06,2.71.23,2.71,2.39,0,2.4-1.39,2.18-2.91,2.16S101.44,63,100.07,63Z"/><path class="cls-3" d="M77.12,36.65c0,1.5-.1,3,0,4.48.14,1.85-.67,2.33-2.4,2.3s-2.2-.57-2.16-2.18c.08-3.11.09-6.22,0-9.33-.06-1.7.71-2.11,2.23-2.08s2.45.14,2.33,2C77,33.41,77.11,35,77.12,36.65Z"/><path class="cls-4" d="M296.92,59.93c-.18-1.85.53-2.85,2.48-2.84,1.67,0,2.47.68,2.55,2.42s-.53,2.73-2.53,2.65C297.84,62.09,296.69,61.84,296.92,59.93Z"/><path class="cls-4" d="M299.42,74.08c-1.88.25-2.56-.54-2.55-2.3s.77-2.71,2.66-2.69c2.05,0,2.41,1.2,2.42,2.92C302,74,300.89,74.3,299.42,74.08Z"/><path class="cls-4" d="M233.26,63.79c1.82-.23,2.72.32,2.7,2.19s-.58,2.82-2.55,2.81-2.54-1-2.54-2.82S231.7,63.49,233.26,63.79Z"/><path class="cls-4" d="M247.9,65.91c.16,2.12-.75,2.92-2.63,2.87s-2.32-.92-2.41-2.57c-.1-2,.87-2.53,2.69-2.5S248.19,64.27,247.9,65.91Z"/><path class="cls-4" d="M259.9,65.91c.16,2.11-.74,2.92-2.63,2.87-1.73,0-2.32-.91-2.4-2.57-.1-2,.85-2.53,2.68-2.5S260.19,64.27,259.9,65.91Z"/><path class="cls-4" d="M299.28,50.1c-1.73.22-2.42-.54-2.41-2.31s.76-2.72,2.65-2.7c2.05,0,2.4,1.19,2.43,2.91C302,50,300.85,50.24,299.28,50.1Z"/><path class="cls-4" d="M183.15,34.41c1.7-.2,2.53.42,2.54,2.27S184.77,39,183.13,39s-2.54-.42-2.53-2.3S181.49,34.22,183.15,34.41Z"/><path class="cls-4" d="M171.36,38.88c-1.82.2-2.75-.28-2.76-2.19s.83-2.34,2.52-2.33,2.59.37,2.57,2.27S173,39.21,171.36,38.88Z"/><path class="cls-4" d="M215.24,79.44c-1.5.14-2.56-.34-2.28-2,.2-1.2-.13-3.07,2.09-2.68,1.46.26,3,.49,2.93,2.66S216.75,79.56,215.24,79.44Z"/><path class="cls-4" d="M215.63,87c1.82-.24,2.32.72,2.32,2.42,0,2-1.23,2.06-2.72,2.11-1.83.07-2.36-.75-2.36-2.47C212.88,87,214.09,86.84,215.63,87Z"/><path class="cls-4" d="M276.12,32.15c-1.74.23-2.46-.5-2.46-2.31s1-2.2,2.62-2.23,2.47.56,2.47,2.37S277.74,32.32,276.12,32.15Z"/><path class="cls-4" d="M195.23,38.91c-1.58.14-2.55-.2-2.64-2.13-.1-2.13,1.12-2.34,2.71-2.58,2.55-.38,2,1.77,2.29,2.91C198.06,39,196.41,38.82,195.23,38.91Z"/><path class="cls-4" d="M159.08,38.9c-1.72.22-2.47-.47-2.47-2.3s1-2.21,2.59-2.24,2.5.53,2.5,2.36S160.72,39.08,159.08,38.9Z"/><path class="cls-4" d="M176.78,74.84c-.35,1.15-.37,3-2,2.92-1.34,0-3.09-.74-3-2.56.06-1.26.63-2.7,2.51-2.47C175.52,72.88,176.75,73,176.78,74.84Z"/><path class="cls-4" d="M140.73,43.57c-.78,1.24-.6,3.21-2.68,2.69-1.11-.29-2.73-.35-2.44-2.15.21-1.3.43-3,2.26-2.87A3.18,3.18,0,0,1,140.73,43.57Z"/><path class="cls-4" d="M207.39,30c-.78,1.11-.64,3.35-2.43,3.21-1.15-.09-3-1.06-2.59-3,.24-1.08.46-2.74,2.33-2C205.7,28.57,207.45,27.94,207.39,30Z"/><path class="cls-5" d="M288.48,27.71c.76.12,2.42-.36,2.2,1.64-.16,1.46-.48,2.92-2.61,2.84-1.81-.08-2.33-1-2.35-2.58S286.69,27.55,288.48,27.71Z"/><path class="cls-4" d="M165.26,83.84c-2.14.29-2.68-.58-2.71-2.28,0-1.92,1-2.15,2.55-2.19,2.22-.07,2.23,1.74,2.4,3C167.77,84.41,165.94,83.65,165.26,83.84Z"/><path class="cls-4" d="M298.7,81.11c1.07.42,2.92.26,2.49,2.32-.26,1.24-.44,3-2.38,2.69-1.18-.18-2.65-.8-2.47-2.27C296.47,82.71,296.48,80.89,298.7,81.11Z"/><path class="cls-4" d="M292.86,91.79c-.39,1.65-1.83,1.66-3.09,1.84-1.8.26-1.85-.94-2-2.29-.22-2.2,1.4-2.49,2.78-2.58C292.47,88.64,292.08,90.65,292.86,91.79Z"/><path class="cls-4" d="M278,76.12c.14,2,0,3.17-1.79,3.15-1.53,0-2.58-.38-2.7-2.24-.14-2.11,1.26-2.55,2.74-2.75C278.18,74,278,75.58,278,76.12Z"/><path class="cls-4" d="M221.58,70.22A3.21,3.21,0,0,1,219,67.46c-.25-1.93,1.77-2.23,3-2.53,1.81-.43,1.68,1.41,1.92,2.45C224.39,69.23,222.7,69.49,221.58,70.22Z"/><path class="cls-4" d="M141.57,55.11c-.35,1.48-1.43,2.84-2.6,2.9-1.59.07-2.43-1.69-2.54-3.12s1.57-1.9,2.68-2.1C140.67,52.5,141,54,141.57,55.11Z"/><path class="cls-4" d="M172.12,61.32c1.34.63,2.85,1.52,2.8,3s-1.73,2.14-3,2.21a2.26,2.26,0,0,1-2.31-2.35A3.06,3.06,0,0,1,172.12,61.32Z"/><path class="cls-4" d="M269.4,69.76c-1.28-.26-2.63-.48-2.53-2.15.08-1.16.08-2.88,1.63-2.82,1.31,0,3.3.32,3.4,2.18C272,68.37,270.81,69.35,269.4,69.76Z"/><path class="cls-4" d="M300.51,35.92c0,2-1.29,2.14-2.52,2.28a2.21,2.21,0,0,1-2.53-2.47c0-1.45,1.54-2.42,2.77-2.49C299.9,33.15,299.77,35.14,300.51,35.92Z"/><path class="cls-4" d="M281.79,87.83c-.88,1.2-1.05,3.09-2.86,2.68a2.86,2.86,0,0,1-2.35-3,2.45,2.45,0,0,1,2.74-2C280.72,85.53,281.31,86.73,281.79,87.83Z"/><path class="cls-5" d="M146.84,60.85c-.09-1.62.52-2.47,2.33-2.43,1.55,0,2.16.59,2.19,2.16S150.8,63.05,149,63C147.6,62.88,146.58,62.59,146.84,60.85Z"/><path class="cls-4" d="M152.57,79.44c1.85-.25,2.6.46,2.57,2.25,0,1.52-.52,2.23-2.14,2.25s-2.51-.51-2.43-2.32C150.63,80.15,151,79.16,152.57,79.44Z"/><path class="cls-5" d="M163.3,60.66c.25,1.81-.66,2.32-2.36,2.31s-2.1-.7-2.14-2.23c0-1.8.71-2.35,2.42-2.32S163.48,59.09,163.3,60.66Z"/><path class="cls-5" d="M149.09,36.4c.16,1.63-.25,2.54-2,2.57-1.92.05-2.3-1.34-2.46-2.66-.18-1.5,1.11-1.72,2.26-1.84C148.5,34.3,149.36,34.86,149.09,36.4Z"/><path class="cls-6" d="M234.51,219.58q-52.45,0-104.91.12c-1.93,0-2.77-.42-3.12-2.59-4.62-28.48-9.39-56.93-14.07-85.4-1.9-11.53-3.57-23.11-5.62-34.62-.48-2.66.15-3,2.44-2.71,12.78,1.4,25.57,2.69,38.35,4.06q33.31,3.59,66.62,7.21,32.57,3.51,65.14,6.94c2.47.26,3.74.85,3.39,3.85-1.19,10.16-2.06,20.35-3.06,30.53-5.06.22-9.73,1.92-14.38,3.74-2.26.89-4.18,2.57-6.67,2.93-.16-3.75.71-7.4,1.26-11.07.72-4.85-2.42-9.42-6.89-9.87-5.12-.51-8.73,2.85-8.74,8.3,0,8.24.1,16.48.16,24.72-.15,1-.29,1.91-.43,2.86-.51.33-1.18.54-1.51,1a53.38,53.38,0,0,0-10.23,29A69.81,69.81,0,0,0,234.51,219.58Zm-74.87-56.72q0-15,0-30a11,11,0,0,0-.45-4.06,9.26,9.26,0,0,0-10.9-5.72c-4.55,1.19-7.31,6.22-6.61,11.6q3.78,29.22,7.42,58.47c.5,4,2.53,6.3,5.64,6.25,3.28,0,4.9-2.17,4.9-6.57Q159.66,177.85,159.64,162.86Zm35.19-21.12c-.4,2.88.56,6.18.68,9.54q.77,20.75,1.64,41.47a18.45,18.45,0,0,0,.69,3.66,4.56,4.56,0,0,0,4.7,3.57,4.91,4.91,0,0,0,4.9-3.39,21.36,21.36,0,0,0,.89-5.51c.86-9.92,1.88-19.81,2.74-29.72.68-7.94,1.35-15.88,1.75-23.84.23-4.62-2.15-7.52-6.5-8.85a9.35,9.35,0,0,0-10.12,3.84C194.42,135.2,194.8,138.24,194.83,141.74Z"/><path class="cls-6" d="M47.91,93.75H80.68c6,0,12,.07,18,0,2.2,0,2.88.68,3.24,2.91,4.09,25.29,8.35,50.54,12.52,75.81,2.47,15,4.83,29.95,7.37,44.91.33,1.95-.13,2.37-2,2.36-12,0-24-.1-36,0-2.66,0-2.6-1.76-3-3.33q-9.77-36.1-19.49-72.21Q55,120.74,48.69,97.27C48.4,96.21,48.21,95.12,47.91,93.75Z"/><path class="cls-7" d="M246.39,201.79a41.7,41.7,0,1,1,83.4.91c-.18,22.89-19.07,41.18-42.39,41C264.65,243.59,246.27,224.8,246.39,201.79Zm29.9-23.13c-.59.49-1.17.91-1.67,1.4-2.75,2.72-5.38,5.57-8.26,8.15-1.81,1.63-1.48,2.66.11,4.13,2.66,2.45,5.06,5.19,7.74,7.61,1.65,1.49,1.43,2.43-.09,3.83-2.84,2.62-5.44,5.5-8.26,8.15-1.21,1.13-1.16,1.84,0,2.95,3,2.84,5.94,5.72,8.72,8.75,1.46,1.58,2.32,1.13,3.56-.17,2.57-2.72,5.34-5.26,7.9-8,1.33-1.42,2.27-1.48,3.63,0,2.64,2.82,5.48,5.46,8.17,8.25,1,1.06,1.75,1.47,3,.17,2.92-3.08,5.93-6.08,9-9,1.23-1.17,1.09-1.89-.06-3-2.55-2.4-4.87-5-7.48-7.35-2.07-1.84-2.57-3.18-.15-5.21,2.66-2.24,4.94-4.94,7.48-7.35,1.19-1.13,1.59-1.93.15-3.27-3-2.81-5.92-5.73-8.74-8.74-1.27-1.35-2.09-1.17-3.27.07-2.67,2.8-5.53,5.42-8.16,8.26-1.37,1.48-2.25,1.37-3.57-.05-2.55-2.74-5.26-5.33-7.92-8C277.58,179.76,277,179.29,276.29,178.66Z"/><path class="cls-8" d="M102.6,224.19c5.74,0,11.49.07,17.23,0,2,0,2.85.49,2.82,2.69-.11,8.86-.08,17.72,0,26.58,0,1.76-.5,2.58-2.32,3.14A14.8,14.8,0,0,0,109.94,267c-.5,1.67-1.23,2.5-3.11,2.33a27.68,27.68,0,0,0-5.61,0c-4.71.52-8.55.21-10-5.59-.73-2.88-3.48-4.89-6.3-6.08-2-.85-2.71-2-2.68-4.19.13-8.73.15-17.47,0-26.21,0-2.53.79-3.13,3.17-3.06C91.12,224.3,96.86,224.19,102.6,224.19Z"/><path class="cls-8" d="M31.83,74.68c1.53-1.08,2.8-.68,4-.68q18-.06,36,0c2.15,0,4.56.21,6.07-1.34,2.37-2.42,3.64-1.37,5.43.63,4.65,5.19,9.5,10.2,14.4,15.42-1.22.79-2.35.47-3.39.47-15.12,0-30.24,0-45.36.08a6.67,6.67,0,0,1-5.5-2.38C39.7,82.74,35.78,78.8,31.83,74.68Z"/><path class="cls-9" d="M136.53,282.52c1.59-2.51,3.21-4.72,3.71-7.47.29-1.53,1.61-1.29,2.71-1.29q24.74,0,49.47,0c1.29,0,2.54-.09,2.9,1.59.55,2.59,2,4.77,3.77,7.19Z"/><path class="cls-10" d="M234.51,219.58a69.81,69.81,0,0,1-2.27-21,53.38,53.38,0,0,1,10.23-29c.33-.46,1-.67,1.51-1q.28,7.63.56,15.27c-.65,5.94-2.86,11.6-2.69,17.72.15,5.42.6,10.72,2.58,15.79.73,1.88.26,2.44-1.67,2.35C240,219.58,237.26,219.61,234.51,219.58Z"/><path class="cls-11" d="M244.54,183.85q-.28-7.64-.56-15.27c.14-1,.28-1.9.43-2.86,2.72-.74,3.93-3.29,5.9-4.94,2.54-2.13,4.73-4.75,8.17-5.54l-1.42,11.95C252,172,248.62,178.23,244.54,183.85Z"/><path class="cls-9" d="M113.43,282.55h-24c1.29-2.44,3.08-4.56,3.54-7.29.25-1.46,1.37-1.53,2.57-1.52,3.87,0,7.75,0,11.62,0,1,0,2-.13,2.32,1.25A21.24,21.24,0,0,0,113.43,282.55Z"/><path class="cls-9" d="M222.09,282.54c1.66-2.44,3.17-4.55,3.7-7.14a1.94,1.94,0,0,1,2.44-1.65,5.24,5.24,0,0,0,1.12,0c7.17-.91,13.52-.38,14.64,8.79Z"/><path class="cls-12" d="M265.29,150.71c4.65-1.82,9.32-3.52,14.38-3.74-.08,8.87-.08,8.87-8.14,11.87-1.5.56-3,1.16-4.5,1.74C263.94,157.73,265.85,154,265.29,150.71Z"/><path class="cls-13" d="M265.29,150.71c.56,3.3-1.35,7,1.74,9.87l-10,6.61q.7-6,1.42-12c0-.53.09-1.06.14-1.59C261.11,153.28,263,151.6,265.29,150.71Z"/><path class="cls-7" d="M124.72,266.79c2.85.13,4.64,1.51,4.87,4.49a4.7,4.7,0,0,1-4.76,5.09c-2.88-.16-4.72-1.89-4.77-4.74S121.69,267.05,124.72,266.79Z"/><path class="cls-7" d="M256.45,266.79c2.94.29,4.55,1.87,4.56,4.81s-1.81,4.54-4.63,4.74a4.52,4.52,0,0,1-4.74-5C251.83,268.38,253.57,267,256.45,266.79Z"/><path class="cls-7" d="M82.17,273.6c-2.76,3.27-5.12,3.49-7.46,1.6S72.35,271,74,268.59c.72-1,1.78-2,3.12-1.5s.66,1.75.6,2.61C77.53,272.31,77.61,274.53,82.17,273.6Z"/><path class="cls-12" d="M206.44,273.86h7.62C212.1,277.26,209.91,277.38,206.44,273.86Z"/><path class="cls-7" d="M214.37,269.13H207.1C209.14,266.06,211.23,266,214.37,269.13Z"/><path class="cls-13" d="M199.44,16.21c-3.7-.14-7.09-.78-9.09-4.28-.45-.79-1.3-2,.63-2.06,3.52-.16,7-.24,9.86,2.45.91.87,2.11,2,1.79,3.12C202.19,17,200.46,15.86,199.44,16.21Z"/><path class="cls-13" d="M221.56,10.06c-2.15,5.37-5.08,6.57-12.72,5.49C210.37,10.74,213.66,9.28,221.56,10.06Z"/><path class="cls-13" d="M248,30c-.7-.12-2.35.44-2.84-1-.39-1.15,1.06-1.83,1.79-2.63,2.49-2.69,5.32-4.5,9.22-3.38,1.05.3,2.19.61.94,1.89C254.69,27.38,252.51,30.3,248,30Z"/><path class="cls-13" d="M260.77,15.87c.18-4.15,2.88-6.47,5.49-8.75,1.15-1,1.38.39,1.66,1.11,1.24,3.28-2,10.34-5.32,10.88C260,19.52,261.31,16.87,260.77,15.87Z"/><path class="cls-9" d="M31.17,239c3,.16,4.74,1.63,4.82,4.59s-1.56,4.72-4.51,4.79-4.72-1.51-4.79-4.52S28.31,239.38,31.17,239Z"/><path class="cls-7" d="M57.48,210.75c-.26,1.4-1,2.27-2.47,2.18a2.07,2.07,0,0,1-2-2.5,2,2,0,0,1,2.19-2C56.62,208.48,57.3,209.39,57.48,210.75Z"/><path class="cls-5" d="M159.64,162.86q0,15,0,30c0,4.4-1.62,6.53-4.9,6.57-3.11.05-5.14-2.27-5.64-6.25q-3.68-29.23-7.42-58.47c-.7-5.38,2.06-10.41,6.61-11.6a9.26,9.26,0,0,1,10.9,5.72,11,11,0,0,1,.45,4.06Q159.66,147.88,159.64,162.86Z"/><path class="cls-5" d="M194.83,141.74c0-3.5-.41-6.54,1.37-9.23a9.35,9.35,0,0,1,10.12-3.84c4.35,1.33,6.73,4.23,6.5,8.85-.4,8-1.07,15.9-1.75,23.84-.86,9.91-1.88,19.8-2.74,29.72a21.36,21.36,0,0,1-.89,5.51,4.91,4.91,0,0,1-4.9,3.39,4.56,4.56,0,0,1-4.7-3.57,18.45,18.45,0,0,1-.69-3.66q-.87-20.73-1.64-41.47C195.39,147.92,194.43,144.62,194.83,141.74Z"/><path class="cls-5" d="M258.62,153.64c-.05.53-.09,1.06-.14,1.59-3.44.8-5.63,3.42-8.17,5.55-2,1.65-3.18,4.2-5.9,4.94-.06-8.24-.16-16.48-.16-24.72,0-5.45,3.62-8.81,8.74-8.3,4.47.45,7.61,5,6.89,9.87C259.33,146.24,258.46,149.89,258.62,153.64Z"/><path class="cls-3" d="M276.29,178.66c.71.63,1.29,1.1,1.82,1.62,2.66,2.64,5.37,5.23,7.92,8,1.32,1.42,2.2,1.53,3.57.05,2.63-2.84,5.49-5.46,8.16-8.26,1.18-1.24,2-1.42,3.27-.07,2.82,3,5.72,5.93,8.74,8.74,1.44,1.34,1,2.14-.15,3.27-2.54,2.41-4.82,5.11-7.48,7.35-2.42,2-1.92,3.37.15,5.21,2.61,2.31,4.93,5,7.48,7.35,1.15,1.08,1.29,1.8.06,3-3.07,2.92-6.08,5.92-9,9-1.23,1.3-2,.89-3-.17-2.69-2.79-5.53-5.43-8.17-8.25-1.36-1.45-2.3-1.39-3.63,0-2.56,2.73-5.33,5.27-7.9,8-1.24,1.3-2.1,1.75-3.56.17-2.78-3-5.74-5.91-8.72-8.75-1.17-1.11-1.22-1.82,0-2.95,2.82-2.65,5.42-5.53,8.26-8.15,1.52-1.4,1.74-2.34.09-3.83-2.68-2.42-5.08-5.16-7.74-7.61-1.59-1.47-1.92-2.5-.11-4.13,2.88-2.58,5.51-5.43,8.26-8.15C275.12,179.57,275.7,179.15,276.29,178.66Z"/></svg>